<svg width="27" height="25" viewBox="0 0 27 25" fill="none" xmlns="http://www.w3.org/2000/svg">
<path d="M0 0.892857C0 0.39975 0.402944 0 0.899999 0H3.6C4.01297 0 4.37297 0.278839 4.47312 0.676304L5.2027 3.57143H26.1C26.3772 3.57143 26.6387 3.69811 26.8094 3.9148C26.98 4.13152 27.0403 4.41411 26.9732 4.68084L24.2732 15.3952C24.1729 15.7927 23.8129 16.0714 23.4 16.0714H7.19999C6.78702 16.0714 6.42702 15.7927 6.32687 15.3952L2.89729 1.78571H0.899999C0.402944 1.78571 0 1.38596 0 0.892857ZM5.6527 5.35714L6.55269 8.92857H8.99999V5.35714H5.6527ZM10.8 5.35714V8.92857H14.4V5.35714H10.8ZM16.2 5.35714V8.92857H19.8V5.35714H16.2ZM21.6 5.35714V8.92857H24.0473L24.9473 5.35714H21.6ZM23.5973 10.7143H21.6V14.2857H22.6973L23.5973 10.7143ZM19.8 10.7143H16.2V14.2857H19.8V10.7143ZM14.4 10.7143H10.8V14.2857H14.4V10.7143ZM8.99999 10.7143H7.00269L7.90269 14.2857H8.99999V10.7143ZM8.99999 19.6429C8.00589 19.6429 7.19999 20.4423 7.19999 21.4286C7.19999 22.4148 8.00589 23.2143 8.99999 23.2143C9.99409 23.2143 10.8 22.4148 10.8 21.4286C10.8 20.4423 9.99409 19.6429 8.99999 19.6429ZM5.39999 21.4286C5.39999 19.4561 7.01177 17.8571 8.99999 17.8571C10.9882 17.8571 12.6 19.4561 12.6 21.4286C12.6 23.4011 10.9882 25 8.99999 25C7.01177 25 5.39999 23.4011 5.39999 21.4286ZM21.6 19.6429C20.6058 19.6429 19.8 20.4423 19.8 21.4286C19.8 22.4148 20.6058 23.2143 21.6 23.2143C22.5941 23.2143 23.4 22.4148 23.4 21.4286C23.4 20.4423 22.5941 19.6429 21.6 19.6429ZM18 21.4286C18 19.4561 19.6117 17.8571 21.6 17.8571C23.5883 17.8571 25.2 19.4561 25.2 21.4286C25.2 23.4011 23.5883 25 21.6 25C19.6117 25 18 23.4011 18 21.4286Z" fill="white"/>
</svg>
