<svg width="213" height="107" viewBox="0 0 213 107" fill="none" xmlns="http://www.w3.org/2000/svg">
<path d="M0.497522 0.722615C0.497521 14.6133 3.23931 28.3679 8.56631 41.2012C13.8933 54.0345 21.7012 65.6951 31.5442 75.5173C41.3872 85.3395 53.0726 93.1309 65.9331 98.4466C78.7936 103.762 92.5775 106.498 106.498 106.498C120.418 106.498 134.202 103.762 147.062 98.4466C159.923 93.1309 171.608 85.3395 181.451 75.5173C191.294 65.6951 199.102 54.0345 204.429 41.2012C209.756 28.3679 212.498 14.6133 212.498 0.722626L171.955 0.722622C171.955 9.30036 170.261 17.7941 166.972 25.7189C163.682 33.6437 158.861 40.8443 152.783 46.9097C146.704 52.9751 139.488 57.7864 131.547 61.069C123.605 64.3515 115.094 66.041 106.498 66.041C97.9017 66.041 89.3899 64.3515 81.4483 61.069C73.5067 57.7864 66.2908 52.9751 60.2125 46.9097C54.1343 40.8443 49.3127 33.6437 46.0232 25.7189C42.7336 17.7941 41.0406 9.30035 41.0406 0.722618L0.497522 0.722615Z" fill="#FFB57C" fill-opacity="0.35"/>
</svg>
