<svg width="1346" height="294" viewBox="0 0 1346 294" fill="none" xmlns="http://www.w3.org/2000/svg">
<path fill-rule="evenodd" clip-rule="evenodd" d="M0 79.9121C21 73.921 61.5 173.798 114 157.323C189.5 131.361 207 160.817 248 167.807C289 173.798 337 116.383 378 143.343C417.5 171.302 436 163.314 480.5 149.334C521 132.36 587 145.34 628 179.29C669 212.241 709.5 229.069 732 218.109C773 198.139 776 208.746 817 175.795C857 141.846 881.5 126.868 941 138.85C1015.5 159.32 1120 165.81 1161 138.85C1202 111.89 1195.65 83.9354 1214.5 45.988C1252 -29.5 1339 5.99999 1346 30.9848V291.598L1324 292C1303 292 1262 292 1222 292C1181 292 1140 292 1099 292C1058 292 1018 291.598 977 291.598C936 291.598 895 292 855 292C814 292 773 292 732 292C691 292 651 292 610 292C569 292 527.987 293.025 487 292C447 291 406 292 365 292C324 292 284 292 243 292C202 292 161 292 120 292C80 292 39.5 291.598 18 291.598H0V79.9121Z" fill="#063A23"/>
<path d="M0 230H1346V294H0V230Z" fill="#063A23"/>
</svg>
