<svg width="25" height="25" viewBox="0 0 25 25" fill="none" xmlns="http://www.w3.org/2000/svg">
<path d="M18.3472 16.1624C19.5827 14.4802 20.3125 12.4035 20.3125 10.1563C20.3125 4.54712 15.7655 0 10.1563 0C4.54712 0 0 4.54712 0 10.1563C0 15.7655 4.54712 20.3125 10.1563 20.3125C12.4041 20.3125 14.4813 19.5824 16.1638 18.3461L16.1624 18.3472C16.2085 18.4097 16.2597 18.4694 16.3163 18.526L22.3327 24.5424C22.9428 25.1525 23.9322 25.1525 24.5424 24.5424C25.1525 23.9322 25.1525 22.9428 24.5424 22.3327L18.526 16.3163C18.4694 16.2597 18.4097 16.2085 18.3472 16.1624ZM18.75 10.1563C18.75 14.9025 14.9025 18.75 10.1563 18.75C5.41006 18.75 1.5625 14.9025 1.5625 10.1563C1.5625 5.41006 5.41006 1.5625 10.1563 1.5625C14.9025 1.5625 18.75 5.41006 18.75 10.1563Z" fill="white"/>
</svg>
