<svg width="1346" height="131" viewBox="0 0 1346 131" fill="none" xmlns="http://www.w3.org/2000/svg">
<path fill-rule="evenodd" clip-rule="evenodd" d="M0 0L11.2167 7.27777C21.3117 14.5555 42.6233 29.1111 63.935 46.0926C85.2467 63.074 106.558 82.4814 127.87 92.1851C149.182 101.889 170.493 101.889 191.805 94.611C213.117 87.3333 235.55 72.7777 256.862 77.6296C278.173 82.4814 299.485 106.741 320.797 97.0369C342.108 87.3333 363.42 43.6666 384.732 41.2407C406.043 38.8148 427.355 77.6296 448.667 82.4814C469.978 87.3333 491.29 58.2222 512.602 53.3703C533.913 48.5185 555.225 67.9259 576.537 70.3518C597.848 72.7777 619.16 58.2222 640.472 50.9444C661.783 43.6666 684.217 43.6666 705.528 43.6666C726.84 43.6666 748.152 43.6666 769.463 55.7962C790.775 67.9259 812.087 92.1851 833.398 82.4814C854.71 72.7777 876.022 29.1111 897.333 24.2592C918.645 19.4074 939.957 53.3703 961.268 60.6481C982.58 67.9259 1003.89 48.5185 1025.2 33.9629C1046.52 19.4074 1067.83 9.70369 1089.14 16.9815C1110.45 24.2592 1132.88 48.5185 1154.19 50.9444C1175.51 53.3703 1196.82 33.9629 1218.13 38.8148C1239.44 43.6666 1260.75 72.7777 1282.07 77.6296C1303.38 82.4814 1324.69 63.074 1334.78 53.3703L1346 43.6666V131H1334.78C1324.69 131 1303.38 131 1282.07 131C1260.75 131 1239.44 131 1218.13 131C1196.82 131 1175.51 131 1154.19 131C1132.88 131 1110.45 131 1089.14 131C1067.83 131 1046.52 131 1025.2 131C1003.89 131 982.58 131 961.268 131C939.957 131 918.645 131 897.333 131C876.022 131 854.71 131 833.398 131C812.087 131 790.775 131 769.463 131C748.152 131 726.84 131 705.528 131C684.217 131 661.783 131 640.472 131C619.16 131 597.848 131 576.537 131C555.225 131 533.913 131 512.602 131C491.29 131 469.978 131 448.667 131C427.355 131 406.043 131 384.732 131C363.42 131 342.108 131 320.797 131C299.485 131 278.173 131 256.862 131C235.55 131 213.117 131 191.805 131C170.493 131 149.182 131 127.87 131C106.558 131 85.2467 131 63.935 131C42.6233 131 21.3117 131 11.2167 131H0L0 0Z" fill="#F9E7C3"/>
</svg>
