<svg width="1156" height="481" viewBox="0 0 1156 481" fill="none" xmlns="http://www.w3.org/2000/svg">
<path d="M252.333 314.274C84.3333 356.054 27.4444 438.296 0 480.744L1156 481V0C996.533 2.04572 910.267 83.5 877.333 119.163C798.933 204.061 570.222 256.482 465.667 272.081C343.533 293.765 272.556 309.245 252.333 314.274Z" fill="#E2C442"/>
<mask id="mask0_29_116" style="mask-type:alpha" maskUnits="userSpaceOnUse" x="0" y="0" width="1156" height="481">
<path d="M252.333 314.274C84.3333 356.054 27.4444 438.296 0 480.744L1156 481V0C996.533 2.04572 910.267 83.5 877.333 119.163C798.933 204.061 570.222 256.482 465.667 272.081C343.533 293.765 272.556 309.245 252.333 314.274Z" fill="#E2C442" fill-opacity="0.46"/>
</mask>
<g mask="url(#mask0_29_116)">
<path d="M-64.3636 -15.8182H-43.2273L-29.5909 12.5455H-29.0455L-15.4091 -15.8182H5.72728L-19.9091 32.0455V54H-38.7273V32.0455L-64.3636 -15.8182ZM53.2244 -15.8182H72.179V28.9091C72.179 34.2273 70.9063 38.8295 68.3608 42.7159C65.8381 46.5795 62.3153 49.5682 57.7926 51.6818C53.2699 53.7727 48.0199 54.8182 42.0426 54.8182C36.0199 54.8182 30.7472 53.7727 26.2244 51.6818C21.7017 49.5682 18.179 46.5795 15.6562 42.7159C13.1562 38.8295 11.9062 34.2273 11.9062 28.9091V-15.8182H30.8608V27.2727C30.8608 29.4318 31.3381 31.3636 32.2926 33.0682C33.2472 34.75 34.5653 36.0682 36.2472 37.0227C37.9517 37.9773 39.8835 38.4545 42.0426 38.4545C44.2244 38.4545 46.1563 37.9773 47.8381 37.0227C49.5199 36.0682 50.8381 34.75 51.7926 33.0682C52.7472 31.3636 53.2244 29.4318 53.2244 27.2727V-15.8182ZM81.1875 -15.8182H104.778L121.006 23.7273H121.824L138.051 -15.8182H161.642V54H143.097V13.6364H142.551L127.006 53.4545H115.824L100.278 13.3636H99.733V54H81.1875V-15.8182ZM170.625 -15.8182H194.216L210.443 23.7273H211.261L227.489 -15.8182H251.08V54H232.534V13.6364H231.989L216.443 53.4545H205.261L189.716 13.3636H189.17V54H170.625V-15.8182ZM257.199 -15.8182H278.335L291.972 12.5455H292.517L306.153 -15.8182H327.29L301.653 32.0455V54H282.835V32.0455L257.199 -15.8182ZM349.73 -15.8182H370.866L384.503 12.5455H385.048L398.685 -15.8182H419.821L394.185 32.0455V54H375.366V32.0455L349.73 -15.8182ZM467.318 -15.8182H486.273V28.9091C486.273 34.2273 485 38.8295 482.455 42.7159C479.932 46.5795 476.409 49.5682 471.886 51.6818C467.364 53.7727 462.114 54.8182 456.136 54.8182C450.114 54.8182 444.841 53.7727 440.318 51.6818C435.795 49.5682 432.273 46.5795 429.75 42.7159C427.25 38.8295 426 34.2273 426 28.9091V-15.8182H444.955V27.2727C444.955 29.4318 445.432 31.3636 446.386 33.0682C447.341 34.75 448.659 36.0682 450.341 37.0227C452.045 37.9773 453.977 38.4545 456.136 38.4545C458.318 38.4545 460.25 37.9773 461.932 37.0227C463.614 36.0682 464.932 34.75 465.886 33.0682C466.841 31.3636 467.318 29.4318 467.318 27.2727V-15.8182ZM495.281 -15.8182H518.872L535.099 23.7273H535.918L552.145 -15.8182H575.736V54H557.19V13.6364H556.645L541.099 53.4545H529.918L514.372 13.3636H513.827V54H495.281V-15.8182ZM584.719 -15.8182H608.31L624.537 23.7273H625.355L641.582 -15.8182H665.173V54H646.628V13.6364H646.082L630.537 53.4545H619.355L603.81 13.3636H603.264V54H584.719V-15.8182ZM671.293 -15.8182H692.429L706.065 12.5455H706.611L720.247 -15.8182H741.384L715.747 32.0455V54H696.929V32.0455L671.293 -15.8182ZM763.824 -15.8182H784.96L798.597 12.5455H799.142L812.778 -15.8182H833.915L808.278 32.0455V54H789.46V32.0455L763.824 -15.8182ZM881.412 -15.8182H900.366V28.9091C900.366 34.2273 899.094 38.8295 896.548 42.7159C894.026 46.5795 890.503 49.5682 885.98 51.6818C881.457 53.7727 876.207 54.8182 870.23 54.8182C864.207 54.8182 858.935 53.7727 854.412 51.6818C849.889 49.5682 846.366 46.5795 843.844 42.7159C841.344 38.8295 840.094 34.2273 840.094 28.9091V-15.8182H859.048V27.2727C859.048 29.4318 859.526 31.3636 860.48 33.0682C861.435 34.75 862.753 36.0682 864.435 37.0227C866.139 37.9773 868.071 38.4545 870.23 38.4545C872.412 38.4545 874.344 37.9773 876.026 37.0227C877.707 36.0682 879.026 34.75 879.98 33.0682C880.935 31.3636 881.412 29.4318 881.412 27.2727V-15.8182ZM909.375 -15.8182H932.966L949.193 23.7273H950.011L966.239 -15.8182H989.83V54H971.284V13.6364H970.739L955.193 53.4545H944.011L928.466 13.3636H927.92V54H909.375V-15.8182ZM998.812 -15.8182H1022.4L1038.63 23.7273H1039.45L1055.68 -15.8182H1079.27V54H1060.72V13.6364H1060.18L1044.63 53.4545H1033.45L1017.9 13.3636H1017.36V54H998.812V-15.8182ZM1085.39 -15.8182H1106.52L1120.16 12.5455H1120.7L1134.34 -15.8182H1155.48L1129.84 32.0455V54H1111.02V32.0455L1085.39 -15.8182ZM1177.92 -15.8182H1199.05L1212.69 12.5455H1213.24L1226.87 -15.8182H1248.01L1222.37 32.0455V54H1203.55V32.0455L1177.92 -15.8182ZM1295.51 -15.8182H1314.46V28.9091C1314.46 34.2273 1313.19 38.8295 1310.64 42.7159C1308.12 46.5795 1304.6 49.5682 1300.07 51.6818C1295.55 53.7727 1290.3 54.8182 1284.32 54.8182C1278.3 54.8182 1273.03 53.7727 1268.51 51.6818C1263.98 49.5682 1260.46 46.5795 1257.94 42.7159C1255.44 38.8295 1254.19 34.2273 1254.19 28.9091V-15.8182H1273.14V27.2727C1273.14 29.4318 1273.62 31.3636 1274.57 33.0682C1275.53 34.75 1276.85 36.0682 1278.53 37.0227C1280.23 37.9773 1282.16 38.4545 1284.32 38.4545C1286.51 38.4545 1288.44 37.9773 1290.12 37.0227C1291.8 36.0682 1293.12 34.75 1294.07 33.0682C1295.03 31.3636 1295.51 29.4318 1295.51 27.2727V-15.8182ZM1323.47 -15.8182H1347.06L1363.29 23.7273H1364.11L1380.33 -15.8182H1403.92V54H1385.38V13.6364H1384.83L1369.29 53.4545H1358.11L1342.56 13.3636H1342.01V54H1323.47V-15.8182ZM1412.91 -15.8182H1436.5L1452.72 23.7273H1453.54L1469.77 -15.8182H1493.36V54H1474.82V13.6364H1474.27L1458.72 53.4545H1447.54L1432 13.3636H1431.45V54H1412.91V-15.8182ZM1499.48 -15.8182H1520.62L1534.25 12.5455H1534.8L1548.43 -15.8182H1569.57L1543.93 32.0455V54H1525.12V32.0455L1499.48 -15.8182ZM1572.89 -15.8182H1594.02L1607.66 12.5455H1608.2L1621.84 -15.8182H1642.98L1617.34 32.0455V54H1598.52V32.0455L1572.89 -15.8182ZM1690.47 -15.8182H1709.43V28.9091C1709.43 34.2273 1708.16 38.8295 1705.61 42.7159C1703.09 46.5795 1699.57 49.5682 1695.04 51.6818C1690.52 53.7727 1685.27 54.8182 1679.29 54.8182C1673.27 54.8182 1668 53.7727 1663.47 51.6818C1658.95 49.5682 1655.43 46.5795 1652.91 42.7159C1650.41 38.8295 1649.16 34.2273 1649.16 28.9091V-15.8182H1668.11V27.2727C1668.11 29.4318 1668.59 31.3636 1669.54 33.0682C1670.5 34.75 1671.82 36.0682 1673.5 37.0227C1675.2 37.9773 1677.13 38.4545 1679.29 38.4545C1681.47 38.4545 1683.41 37.9773 1685.09 37.0227C1686.77 36.0682 1688.09 34.75 1689.04 33.0682C1690 31.3636 1690.47 29.4318 1690.47 27.2727V-15.8182ZM1718.44 -15.8182H1742.03L1758.26 23.7273H1759.07L1775.3 -15.8182H1798.89V54H1780.35V13.6364H1779.8L1764.26 53.4545H1753.07L1737.53 13.3636H1736.98V54H1718.44V-15.8182ZM1807.88 -15.8182H1831.47L1847.69 23.7273H1848.51L1864.74 -15.8182H1888.33V54H1869.78V13.6364H1869.24L1853.69 53.4545H1842.51L1826.97 13.3636H1826.42V54H1807.88V-15.8182ZM1894.45 -15.8182H1915.59L1929.22 12.5455H1929.77L1943.4 -15.8182H1964.54L1938.9 32.0455V54H1920.09V32.0455L1894.45 -15.8182ZM1986.98 -15.8182H2008.12L2021.75 12.5455H2022.3L2035.93 -15.8182H2057.07L2031.43 32.0455V54H2012.62V32.0455L1986.98 -15.8182ZM2104.57 -15.8182H2123.52V28.9091C2123.52 34.2273 2122.25 38.8295 2119.7 42.7159C2117.18 46.5795 2113.66 49.5682 2109.14 51.6818C2104.61 53.7727 2099.36 54.8182 2093.39 54.8182C2087.36 54.8182 2082.09 53.7727 2077.57 51.6818C2073.05 49.5682 2069.52 46.5795 2067 42.7159C2064.5 38.8295 2063.25 34.2273 2063.25 28.9091V-15.8182H2082.2V27.2727C2082.2 29.4318 2082.68 31.3636 2083.64 33.0682C2084.59 34.75 2085.91 36.0682 2087.59 37.0227C2089.3 37.9773 2091.23 38.4545 2093.39 38.4545C2095.57 38.4545 2097.5 37.9773 2099.18 37.0227C2100.86 36.0682 2102.18 34.75 2103.14 33.0682C2104.09 31.3636 2104.57 29.4318 2104.57 27.2727V-15.8182ZM2132.53 -15.8182H2156.12L2172.35 23.7273H2173.17L2189.39 -15.8182H2212.99V54H2194.44V13.6364H2193.89L2178.35 53.4545H2167.17L2151.62 13.3636H2151.08V54H2132.53V-15.8182ZM2221.97 -15.8182H2245.56L2261.79 23.7273H2262.61L2278.83 -15.8182H2302.42V54H2283.88V13.6364H2283.33L2267.79 53.4545H2256.61L2241.06 13.3636H2240.51V54H2221.97V-15.8182ZM2308.54 -15.8182H2329.68L2343.32 12.5455H2343.86L2357.5 -15.8182H2378.63L2353 32.0455V54H2334.18V32.0455L2308.54 -15.8182ZM2401.07 -15.8182H2422.21L2435.85 12.5455H2436.39L2450.03 -15.8182H2471.16L2445.53 32.0455V54H2426.71V32.0455L2401.07 -15.8182ZM2518.66 -15.8182H2537.62V28.9091C2537.62 34.2273 2536.34 38.8295 2533.8 42.7159C2531.28 46.5795 2527.75 49.5682 2523.23 51.6818C2518.71 53.7727 2513.46 54.8182 2507.48 54.8182C2501.46 54.8182 2496.18 53.7727 2491.66 51.6818C2487.14 49.5682 2483.62 46.5795 2481.09 42.7159C2478.59 38.8295 2477.34 34.2273 2477.34 28.9091V-15.8182H2496.3V27.2727C2496.3 29.4318 2496.78 31.3636 2497.73 33.0682C2498.68 34.75 2500 36.0682 2501.68 37.0227C2503.39 37.9773 2505.32 38.4545 2507.48 38.4545C2509.66 38.4545 2511.59 37.9773 2513.28 37.0227C2514.96 36.0682 2516.28 34.75 2517.23 33.0682C2518.18 31.3636 2518.66 29.4318 2518.66 27.2727V-15.8182ZM2546.62 -15.8182H2570.22L2586.44 23.7273H2587.26L2603.49 -15.8182H2627.08V54H2608.53V13.6364H2607.99L2592.44 53.4545H2581.26L2565.72 13.3636H2565.17V54H2546.62V-15.8182ZM2636.06 -15.8182H2659.65L2675.88 23.7273H2676.7L2692.93 -15.8182H2716.52V54H2697.97V13.6364H2697.43L2681.88 53.4545H2670.7L2655.15 13.3636H2654.61V54H2636.06V-15.8182ZM2722.64 -15.8182H2743.77L2757.41 12.5455H2757.95L2771.59 -15.8182H2792.73L2767.09 32.0455V54H2748.27V32.0455L2722.64 -15.8182ZM2815.17 -15.8182H2836.3L2849.94 12.5455H2850.49L2864.12 -15.8182H2885.26L2859.62 32.0455V54H2840.8V32.0455L2815.17 -15.8182ZM2932.76 -15.8182H2951.71V28.9091C2951.71 34.2273 2950.44 38.8295 2947.89 42.7159C2945.37 46.5795 2941.85 49.5682 2937.32 51.6818C2932.8 53.7727 2927.55 54.8182 2921.57 54.8182C2915.55 54.8182 2910.28 53.7727 2905.76 51.6818C2901.23 49.5682 2897.71 46.5795 2895.19 42.7159C2892.69 38.8295 2891.44 34.2273 2891.44 28.9091V-15.8182H2910.39V27.2727C2910.39 29.4318 2910.87 31.3636 2911.82 33.0682C2912.78 34.75 2914.1 36.0682 2915.78 37.0227C2917.48 37.9773 2919.41 38.4545 2921.57 38.4545C2923.76 38.4545 2925.69 37.9773 2927.37 37.0227C2929.05 36.0682 2930.37 34.75 2931.32 33.0682C2932.28 31.3636 2932.76 29.4318 2932.76 27.2727V-15.8182ZM2960.72 -15.8182H2984.31L3000.54 23.7273H3001.36L3017.58 -15.8182H3041.17V54H3022.63V13.6364H3022.08L3006.54 53.4545H2995.36L2979.81 13.3636H2979.26V54H2960.72V-15.8182ZM3050.16 -15.8182H3073.75L3089.97 23.7273H3090.79L3107.02 -15.8182H3130.61V54H3112.07V13.6364H3111.52L3095.97 53.4545H3084.79L3069.25 13.3636H3068.7V54H3050.16V-15.8182ZM3136.73 -15.8182H3157.87L3171.5 12.5455H3172.05L3185.68 -15.8182H3206.82L3181.18 32.0455V54H3162.37V32.0455L3136.73 -15.8182ZM-64.3636 100.182H-43.2273L-29.5909 128.545H-29.0455L-15.4091 100.182H5.72728L-19.9091 148.045V170H-38.7273V148.045L-64.3636 100.182ZM53.2244 100.182H72.179V144.909C72.179 150.227 70.9063 154.83 68.3608 158.716C65.8381 162.58 62.3153 165.568 57.7926 167.682C53.2699 169.773 48.0199 170.818 42.0426 170.818C36.0199 170.818 30.7472 169.773 26.2244 167.682C21.7017 165.568 18.179 162.58 15.6562 158.716C13.1562 154.83 11.9062 150.227 11.9062 144.909V100.182H30.8608V143.273C30.8608 145.432 31.3381 147.364 32.2926 149.068C33.2472 150.75 34.5653 152.068 36.2472 153.023C37.9517 153.977 39.8835 154.455 42.0426 154.455C44.2244 154.455 46.1563 153.977 47.8381 153.023C49.5199 152.068 50.8381 150.75 51.7926 149.068C52.7472 147.364 53.2244 145.432 53.2244 143.273V100.182ZM81.1875 100.182H104.778L121.006 139.727H121.824L138.051 100.182H161.642V170H143.097V129.636H142.551L127.006 169.455H115.824L100.278 129.364H99.733V170H81.1875V100.182ZM170.625 100.182H194.216L210.443 139.727H211.261L227.489 100.182H251.08V170H232.534V129.636H231.989L216.443 169.455H205.261L189.716 129.364H189.17V170H170.625V100.182ZM257.199 100.182H278.335L291.972 128.545H292.517L306.153 100.182H327.29L301.653 148.045V170H282.835V148.045L257.199 100.182ZM349.73 100.182H370.866L384.503 128.545H385.048L398.685 100.182H419.821L394.185 148.045V170H375.366V148.045L349.73 100.182ZM467.318 100.182H486.273V144.909C486.273 150.227 485 154.83 482.455 158.716C479.932 162.58 476.409 165.568 471.886 167.682C467.364 169.773 462.114 170.818 456.136 170.818C450.114 170.818 444.841 169.773 440.318 167.682C435.795 165.568 432.273 162.58 429.75 158.716C427.25 154.83 426 150.227 426 144.909V100.182H444.955V143.273C444.955 145.432 445.432 147.364 446.386 149.068C447.341 150.75 448.659 152.068 450.341 153.023C452.045 153.977 453.977 154.455 456.136 154.455C458.318 154.455 460.25 153.977 461.932 153.023C463.614 152.068 464.932 150.75 465.886 149.068C466.841 147.364 467.318 145.432 467.318 143.273V100.182ZM495.281 100.182H518.872L535.099 139.727H535.918L552.145 100.182H575.736V170H557.19V129.636H556.645L541.099 169.455H529.918L514.372 129.364H513.827V170H495.281V100.182ZM584.719 100.182H608.31L624.537 139.727H625.355L641.582 100.182H665.173V170H646.628V129.636H646.082L630.537 169.455H619.355L603.81 129.364H603.264V170H584.719V100.182ZM671.293 100.182H692.429L706.065 128.545H706.611L720.247 100.182H741.384L715.747 148.045V170H696.929V148.045L671.293 100.182ZM763.824 100.182H784.96L798.597 128.545H799.142L812.778 100.182H833.915L808.278 148.045V170H789.46V148.045L763.824 100.182ZM881.412 100.182H900.366V144.909C900.366 150.227 899.094 154.83 896.548 158.716C894.026 162.58 890.503 165.568 885.98 167.682C881.457 169.773 876.207 170.818 870.23 170.818C864.207 170.818 858.935 169.773 854.412 167.682C849.889 165.568 846.366 162.58 843.844 158.716C841.344 154.83 840.094 150.227 840.094 144.909V100.182H859.048V143.273C859.048 145.432 859.526 147.364 860.48 149.068C861.435 150.75 862.753 152.068 864.435 153.023C866.139 153.977 868.071 154.455 870.23 154.455C872.412 154.455 874.344 153.977 876.026 153.023C877.707 152.068 879.026 150.75 879.98 149.068C880.935 147.364 881.412 145.432 881.412 143.273V100.182ZM909.375 100.182H932.966L949.193 139.727H950.011L966.239 100.182H989.83V170H971.284V129.636H970.739L955.193 169.455H944.011L928.466 129.364H927.92V170H909.375V100.182ZM998.812 100.182H1022.4L1038.63 139.727H1039.45L1055.68 100.182H1079.27V170H1060.72V129.636H1060.18L1044.63 169.455H1033.45L1017.9 129.364H1017.36V170H998.812V100.182ZM1085.39 100.182H1106.52L1120.16 128.545H1120.7L1134.34 100.182H1155.48L1129.84 148.045V170H1111.02V148.045L1085.39 100.182ZM1177.92 100.182H1199.05L1212.69 128.545H1213.24L1226.87 100.182H1248.01L1222.37 148.045V170H1203.55V148.045L1177.92 100.182ZM1295.51 100.182H1314.46V144.909C1314.46 150.227 1313.19 154.83 1310.64 158.716C1308.12 162.58 1304.6 165.568 1300.07 167.682C1295.55 169.773 1290.3 170.818 1284.32 170.818C1278.3 170.818 1273.03 169.773 1268.51 167.682C1263.98 165.568 1260.46 162.58 1257.94 158.716C1255.44 154.83 1254.19 150.227 1254.19 144.909V100.182H1273.14V143.273C1273.14 145.432 1273.62 147.364 1274.57 149.068C1275.53 150.75 1276.85 152.068 1278.53 153.023C1280.23 153.977 1282.16 154.455 1284.32 154.455C1286.51 154.455 1288.44 153.977 1290.12 153.023C1291.8 152.068 1293.12 150.75 1294.07 149.068C1295.03 147.364 1295.51 145.432 1295.51 143.273V100.182ZM1323.47 100.182H1347.06L1363.29 139.727H1364.11L1380.33 100.182H1403.92V170H1385.38V129.636H1384.83L1369.29 169.455H1358.11L1342.56 129.364H1342.01V170H1323.47V100.182ZM1412.91 100.182H1436.5L1452.72 139.727H1453.54L1469.77 100.182H1493.36V170H1474.82V129.636H1474.27L1458.72 169.455H1447.54L1432 129.364H1431.45V170H1412.91V100.182ZM1499.48 100.182H1520.62L1534.25 128.545H1534.8L1548.43 100.182H1569.57L1543.93 148.045V170H1525.12V148.045L1499.48 100.182ZM1611.14 100.182H1632.27L1645.91 128.545H1646.45L1660.09 100.182H1681.23L1655.59 148.045V170H1636.77V148.045L1611.14 100.182ZM1728.72 100.182H1747.68V144.909C1747.68 150.227 1746.41 154.83 1743.86 158.716C1741.34 162.58 1737.82 165.568 1733.29 167.682C1728.77 169.773 1723.52 170.818 1717.54 170.818C1711.52 170.818 1706.25 169.773 1701.72 167.682C1697.2 165.568 1693.68 162.58 1691.16 158.716C1688.66 154.83 1687.41 150.227 1687.41 144.909V100.182H1706.36V143.273C1706.36 145.432 1706.84 147.364 1707.79 149.068C1708.75 150.75 1710.07 152.068 1711.75 153.023C1713.45 153.977 1715.38 154.455 1717.54 154.455C1719.72 154.455 1721.66 153.977 1723.34 153.023C1725.02 152.068 1726.34 150.75 1727.29 149.068C1728.25 147.364 1728.72 145.432 1728.72 143.273V100.182ZM1756.69 100.182H1780.28L1796.51 139.727H1797.32L1813.55 100.182H1837.14V170H1818.6V129.636H1818.05L1802.51 169.455H1791.32L1775.78 129.364H1775.23V170H1756.69V100.182ZM1846.12 100.182H1869.72L1885.94 139.727H1886.76L1902.99 100.182H1926.58V170H1908.03V129.636H1907.49L1891.94 169.455H1880.76L1865.22 129.364H1864.67V170H1846.12V100.182ZM1932.7 100.182H1953.84L1967.47 128.545H1968.02L1981.65 100.182H2002.79L1977.15 148.045V170H1958.34V148.045L1932.7 100.182ZM2025.23 100.182H2046.37L2060 128.545H2060.55L2074.18 100.182H2095.32L2069.68 148.045V170H2050.87V148.045L2025.23 100.182ZM2142.82 100.182H2161.77V144.909C2161.77 150.227 2160.5 154.83 2157.95 158.716C2155.43 162.58 2151.91 165.568 2147.39 167.682C2142.86 169.773 2137.61 170.818 2131.64 170.818C2125.61 170.818 2120.34 169.773 2115.82 167.682C2111.3 165.568 2107.77 162.58 2105.25 158.716C2102.75 154.83 2101.5 150.227 2101.5 144.909V100.182H2120.45V143.273C2120.45 145.432 2120.93 147.364 2121.89 149.068C2122.84 150.75 2124.16 152.068 2125.84 153.023C2127.55 153.977 2129.48 154.455 2131.64 154.455C2133.82 154.455 2135.75 153.977 2137.43 153.023C2139.11 152.068 2140.43 150.75 2141.39 149.068C2142.34 147.364 2142.82 145.432 2142.82 143.273V100.182ZM2170.78 100.182H2194.37L2210.6 139.727H2211.42L2227.64 100.182H2251.24V170H2232.69V129.636H2232.14L2216.6 169.455H2205.42L2189.87 129.364H2189.33V170H2170.78V100.182ZM2260.22 100.182H2283.81L2300.04 139.727H2300.86L2317.08 100.182H2340.67V170H2322.13V129.636H2321.58L2306.04 169.455H2294.86L2279.31 129.364H2278.76V170H2260.22V100.182ZM2346.79 100.182H2367.93L2381.57 128.545H2382.11L2395.75 100.182H2416.88L2391.25 148.045V170H2372.43V148.045L2346.79 100.182ZM2439.32 100.182H2460.46L2474.1 128.545H2474.64L2488.28 100.182H2509.41L2483.78 148.045V170H2464.96V148.045L2439.32 100.182ZM2556.91 100.182H2575.87V144.909C2575.87 150.227 2574.59 154.83 2572.05 158.716C2569.53 162.58 2566 165.568 2561.48 167.682C2556.96 169.773 2551.71 170.818 2545.73 170.818C2539.71 170.818 2534.43 169.773 2529.91 167.682C2525.39 165.568 2521.87 162.58 2519.34 158.716C2516.84 154.83 2515.59 150.227 2515.59 144.909V100.182H2534.55V143.273C2534.55 145.432 2535.03 147.364 2535.98 149.068C2536.93 150.75 2538.25 152.068 2539.93 153.023C2541.64 153.977 2543.57 154.455 2545.73 154.455C2547.91 154.455 2549.84 153.977 2551.53 153.023C2553.21 152.068 2554.53 150.75 2555.48 149.068C2556.43 147.364 2556.91 145.432 2556.91 143.273V100.182ZM2584.88 100.182H2608.47L2624.69 139.727H2625.51L2641.74 100.182H2665.33V170H2646.78V129.636H2646.24L2630.69 169.455H2619.51L2603.97 129.364H2603.42V170H2584.88V100.182ZM2674.31 100.182H2697.9L2714.13 139.727H2714.95L2731.18 100.182H2754.77V170H2736.22V129.636H2735.68L2720.13 169.455H2708.95L2693.4 129.364H2692.86V170H2674.31V100.182ZM2760.89 100.182H2782.02L2795.66 128.545H2796.2L2809.84 100.182H2830.98L2805.34 148.045V170H2786.52V148.045L2760.89 100.182ZM2853.42 100.182H2874.55L2888.19 128.545H2888.74L2902.37 100.182H2923.51L2897.87 148.045V170H2879.05V148.045L2853.42 100.182ZM2971.01 100.182H2989.96V144.909C2989.96 150.227 2988.69 154.83 2986.14 158.716C2983.62 162.58 2980.1 165.568 2975.57 167.682C2971.05 169.773 2965.8 170.818 2959.82 170.818C2953.8 170.818 2948.53 169.773 2944.01 167.682C2939.48 165.568 2935.96 162.58 2933.44 158.716C2930.94 154.83 2929.69 150.227 2929.69 144.909V100.182H2948.64V143.273C2948.64 145.432 2949.12 147.364 2950.07 149.068C2951.03 150.75 2952.35 152.068 2954.03 153.023C2955.73 153.977 2957.66 154.455 2959.82 154.455C2962.01 154.455 2963.94 153.977 2965.62 153.023C2967.3 152.068 2968.62 150.75 2969.57 149.068C2970.53 147.364 2971.01 145.432 2971.01 143.273V100.182ZM2998.97 100.182H3022.56L3038.79 139.727H3039.61L3055.83 100.182H3079.42V170H3060.88V129.636H3060.33L3044.79 169.455H3033.61L3018.06 129.364H3017.51V170H2998.97V100.182ZM3088.41 100.182H3112L3128.22 139.727H3129.04L3145.27 100.182H3168.86V170H3150.32V129.636H3149.77L3134.22 169.455H3123.04L3107.5 129.364H3106.95V170H3088.41V100.182ZM3174.98 100.182H3196.12L3209.75 128.545H3210.3L3223.93 100.182H3245.07L3219.43 148.045V170H3200.62V148.045L3174.98 100.182ZM-64.3636 216.182H-43.2273L-29.5909 244.545H-29.0455L-15.4091 216.182H5.72728L-19.9091 264.045V286H-38.7273V264.045L-64.3636 216.182ZM53.2244 216.182H72.179V260.909C72.179 266.227 70.9063 270.83 68.3608 274.716C65.8381 278.58 62.3153 281.568 57.7926 283.682C53.2699 285.773 48.0199 286.818 42.0426 286.818C36.0199 286.818 30.7472 285.773 26.2244 283.682C21.7017 281.568 18.179 278.58 15.6562 274.716C13.1562 270.83 11.9062 266.227 11.9062 260.909V216.182H30.8608V259.273C30.8608 261.432 31.3381 263.364 32.2926 265.068C33.2472 266.75 34.5653 268.068 36.2472 269.023C37.9517 269.977 39.8835 270.455 42.0426 270.455C44.2244 270.455 46.1563 269.977 47.8381 269.023C49.5199 268.068 50.8381 266.75 51.7926 265.068C52.7472 263.364 53.2244 261.432 53.2244 259.273V216.182ZM81.1875 216.182H104.778L121.006 255.727H121.824L138.051 216.182H161.642V286H143.097V245.636H142.551L127.006 285.455H115.824L100.278 245.364H99.733V286H81.1875V216.182ZM170.625 216.182H194.216L210.443 255.727H211.261L227.489 216.182H251.08V286H232.534V245.636H231.989L216.443 285.455H205.261L189.716 245.364H189.17V286H170.625V216.182ZM257.199 216.182H278.335L291.972 244.545H292.517L306.153 216.182H327.29L301.653 264.045V286H282.835V264.045L257.199 216.182ZM349.73 216.182H370.866L384.503 244.545H385.048L398.685 216.182H419.821L394.185 264.045V286H375.366V264.045L349.73 216.182ZM467.318 216.182H486.273V260.909C486.273 266.227 485 270.83 482.455 274.716C479.932 278.58 476.409 281.568 471.886 283.682C467.364 285.773 462.114 286.818 456.136 286.818C450.114 286.818 444.841 285.773 440.318 283.682C435.795 281.568 432.273 278.58 429.75 274.716C427.25 270.83 426 266.227 426 260.909V216.182H444.955V259.273C444.955 261.432 445.432 263.364 446.386 265.068C447.341 266.75 448.659 268.068 450.341 269.023C452.045 269.977 453.977 270.455 456.136 270.455C458.318 270.455 460.25 269.977 461.932 269.023C463.614 268.068 464.932 266.75 465.886 265.068C466.841 263.364 467.318 261.432 467.318 259.273V216.182ZM495.281 216.182H518.872L535.099 255.727H535.918L552.145 216.182H575.736V286H557.19V245.636H556.645L541.099 285.455H529.918L514.372 245.364H513.827V286H495.281V216.182ZM584.719 216.182H608.31L624.537 255.727H625.355L641.582 216.182H665.173V286H646.628V245.636H646.082L630.537 285.455H619.355L603.81 245.364H603.264V286H584.719V216.182ZM671.293 216.182H692.429L706.065 244.545H706.611L720.247 216.182H741.384L715.747 264.045V286H696.929V264.045L671.293 216.182ZM763.824 216.182H784.96L798.597 244.545H799.142L812.778 216.182H833.915L808.278 264.045V286H789.46V264.045L763.824 216.182ZM881.412 216.182H900.366V260.909C900.366 266.227 899.094 270.83 896.548 274.716C894.026 278.58 890.503 281.568 885.98 283.682C881.457 285.773 876.207 286.818 870.23 286.818C864.207 286.818 858.935 285.773 854.412 283.682C849.889 281.568 846.366 278.58 843.844 274.716C841.344 270.83 840.094 266.227 840.094 260.909V216.182H859.048V259.273C859.048 261.432 859.526 263.364 860.48 265.068C861.435 266.75 862.753 268.068 864.435 269.023C866.139 269.977 868.071 270.455 870.23 270.455C872.412 270.455 874.344 269.977 876.026 269.023C877.707 268.068 879.026 266.75 879.98 265.068C880.935 263.364 881.412 261.432 881.412 259.273V216.182ZM909.375 216.182H932.966L949.193 255.727H950.011L966.239 216.182H989.83V286H971.284V245.636H970.739L955.193 285.455H944.011L928.466 245.364H927.92V286H909.375V216.182ZM998.812 216.182H1022.4L1038.63 255.727H1039.45L1055.68 216.182H1079.27V286H1060.72V245.636H1060.18L1044.63 285.455H1033.45L1017.9 245.364H1017.36V286H998.812V216.182ZM1085.39 216.182H1106.52L1120.16 244.545H1120.7L1134.34 216.182H1155.48L1129.84 264.045V286H1111.02V264.045L1085.39 216.182ZM1177.92 216.182H1199.05L1212.69 244.545H1213.24L1226.87 216.182H1248.01L1222.37 264.045V286H1203.55V264.045L1177.92 216.182ZM1295.51 216.182H1314.46V260.909C1314.46 266.227 1313.19 270.83 1310.64 274.716C1308.12 278.58 1304.6 281.568 1300.07 283.682C1295.55 285.773 1290.3 286.818 1284.32 286.818C1278.3 286.818 1273.03 285.773 1268.51 283.682C1263.98 281.568 1260.46 278.58 1257.94 274.716C1255.44 270.83 1254.19 266.227 1254.19 260.909V216.182H1273.14V259.273C1273.14 261.432 1273.62 263.364 1274.57 265.068C1275.53 266.75 1276.85 268.068 1278.53 269.023C1280.23 269.977 1282.16 270.455 1284.32 270.455C1286.51 270.455 1288.44 269.977 1290.12 269.023C1291.8 268.068 1293.12 266.75 1294.07 265.068C1295.03 263.364 1295.51 261.432 1295.51 259.273V216.182ZM1323.47 216.182H1347.06L1363.29 255.727H1364.11L1380.33 216.182H1403.92V286H1385.38V245.636H1384.83L1369.29 285.455H1358.11L1342.56 245.364H1342.01V286H1323.47V216.182ZM1412.91 216.182H1436.5L1452.72 255.727H1453.54L1469.77 216.182H1493.36V286H1474.82V245.636H1474.27L1458.72 285.455H1447.54L1432 245.364H1431.45V286H1412.91V216.182ZM1499.48 216.182H1520.62L1534.25 244.545H1534.8L1548.43 216.182H1569.57L1543.93 264.045V286H1525.12V264.045L1499.48 216.182ZM1592.01 216.182H1613.15L1626.78 244.545H1627.33L1640.97 216.182H1662.1L1636.47 264.045V286H1617.65V264.045L1592.01 216.182ZM1709.6 216.182H1728.55V260.909C1728.55 266.227 1727.28 270.83 1724.74 274.716C1722.21 278.58 1718.69 281.568 1714.17 283.682C1709.64 285.773 1704.39 286.818 1698.42 286.818C1692.39 286.818 1687.12 285.773 1682.6 283.682C1678.08 281.568 1674.55 278.58 1672.03 274.716C1669.53 270.83 1668.28 266.227 1668.28 260.909V216.182H1687.24V259.273C1687.24 261.432 1687.71 263.364 1688.67 265.068C1689.62 266.75 1690.94 268.068 1692.62 269.023C1694.33 269.977 1696.26 270.455 1698.42 270.455C1700.6 270.455 1702.53 269.977 1704.21 269.023C1705.89 268.068 1707.21 266.75 1708.17 265.068C1709.12 263.364 1709.6 261.432 1709.6 259.273V216.182ZM1737.56 216.182H1761.15L1777.38 255.727H1778.2L1794.43 216.182H1818.02V286H1799.47V245.636H1798.93L1783.38 285.455H1772.2L1756.65 245.364H1756.11V286H1737.56V216.182ZM1827 216.182H1850.59L1866.82 255.727H1867.64L1883.86 216.182H1907.45V286H1888.91V245.636H1888.36L1872.82 285.455H1861.64L1846.09 245.364H1845.55V286H1827V216.182ZM1913.57 216.182H1934.71L1948.35 244.545H1948.89L1962.53 216.182H1983.66L1958.03 264.045V286H1939.21V264.045L1913.57 216.182ZM2006.11 216.182H2027.24L2040.88 244.545H2041.42L2055.06 216.182H2076.2L2050.56 264.045V286H2031.74V264.045L2006.11 216.182ZM2123.69 216.182H2142.65V260.909C2142.65 266.227 2141.38 270.83 2138.83 274.716C2136.31 278.58 2132.78 281.568 2128.26 283.682C2123.74 285.773 2118.49 286.818 2112.51 286.818C2106.49 286.818 2101.22 285.773 2096.69 283.682C2092.17 281.568 2088.65 278.58 2086.12 274.716C2083.62 270.83 2082.38 266.227 2082.38 260.909V216.182H2101.33V259.273C2101.33 261.432 2101.81 263.364 2102.76 265.068C2103.72 266.75 2105.03 268.068 2106.72 269.023C2108.42 269.977 2110.35 270.455 2112.51 270.455C2114.69 270.455 2116.63 269.977 2118.31 269.023C2119.99 268.068 2121.31 266.75 2122.26 265.068C2123.22 263.364 2123.69 261.432 2123.69 259.273V216.182ZM2151.66 216.182H2175.25L2191.47 255.727H2192.29L2208.52 216.182H2232.11V286H2213.57V245.636H2213.02L2197.47 285.455H2186.29L2170.75 245.364H2170.2V286H2151.66V216.182ZM2241.09 216.182H2264.68L2280.91 255.727H2281.73L2297.96 216.182H2321.55V286H2303V245.636H2302.46L2286.91 285.455H2275.73L2260.18 245.364H2259.64V286H2241.09V216.182ZM2327.67 216.182H2348.8L2362.44 244.545H2362.99L2376.62 216.182H2397.76L2372.12 264.045V286H2353.3V264.045L2327.67 216.182ZM2420.2 216.182H2441.34L2454.97 244.545H2455.52L2469.15 216.182H2490.29L2464.65 264.045V286H2445.84V264.045L2420.2 216.182ZM2537.79 216.182H2556.74V260.909C2556.74 266.227 2555.47 270.83 2552.92 274.716C2550.4 278.58 2546.88 281.568 2542.36 283.682C2537.83 285.773 2532.58 286.818 2526.61 286.818C2520.58 286.818 2515.31 285.773 2510.79 283.682C2506.26 281.568 2502.74 278.58 2500.22 274.716C2497.72 270.83 2496.47 266.227 2496.47 260.909V216.182H2515.42V259.273C2515.42 261.432 2515.9 263.364 2516.86 265.068C2517.81 266.75 2519.13 268.068 2520.81 269.023C2522.51 269.977 2524.45 270.455 2526.61 270.455C2528.79 270.455 2530.72 269.977 2532.4 269.023C2534.08 268.068 2535.4 266.75 2536.36 265.068C2537.31 263.364 2537.79 261.432 2537.79 259.273V216.182ZM2565.75 216.182H2589.34L2605.57 255.727H2606.39L2622.61 216.182H2646.2V286H2627.66V245.636H2627.11L2611.57 285.455H2600.39L2584.84 245.364H2584.3V286H2565.75V216.182ZM2655.19 216.182H2678.78L2695.01 255.727H2695.82L2712.05 216.182H2735.64V286H2717.1V245.636H2716.55L2701.01 285.455H2689.82L2674.28 245.364H2673.73V286H2655.19V216.182ZM2741.76 216.182H2762.9L2776.53 244.545H2777.08L2790.72 216.182H2811.85L2786.22 264.045V286H2767.4V264.045L2741.76 216.182ZM2834.29 216.182H2855.43L2869.07 244.545H2869.61L2883.25 216.182H2904.38L2878.75 264.045V286H2859.93V264.045L2834.29 216.182ZM2951.88 216.182H2970.84V260.909C2970.84 266.227 2969.56 270.83 2967.02 274.716C2964.49 278.58 2960.97 281.568 2956.45 283.682C2951.93 285.773 2946.68 286.818 2940.7 286.818C2934.68 286.818 2929.4 285.773 2924.88 283.682C2920.36 281.568 2916.84 278.58 2914.31 274.716C2911.81 270.83 2910.56 266.227 2910.56 260.909V216.182H2929.52V259.273C2929.52 261.432 2929.99 263.364 2930.95 265.068C2931.9 266.75 2933.22 268.068 2934.9 269.023C2936.61 269.977 2938.54 270.455 2940.7 270.455C2942.88 270.455 2944.81 269.977 2946.49 269.023C2948.18 268.068 2949.49 266.75 2950.45 265.068C2951.4 263.364 2951.88 261.432 2951.88 259.273V216.182ZM2979.84 216.182H3003.43L3019.66 255.727H3020.48L3036.71 216.182H3060.3V286H3041.75V245.636H3041.21L3025.66 285.455H3014.48L2998.93 245.364H2998.39V286H2979.84V216.182ZM3069.28 216.182H3092.87L3109.1 255.727H3109.92L3126.14 216.182H3149.74V286H3131.19V245.636H3130.64L3115.1 285.455H3103.92L3088.37 245.364H3087.83V286H3069.28V216.182ZM3155.86 216.182H3176.99L3190.63 244.545H3191.17L3204.81 216.182H3225.95L3200.31 264.045V286H3181.49V264.045L3155.86 216.182ZM-64.3636 332.182H-43.2273L-29.5909 360.545H-29.0455L-15.4091 332.182H5.72728L-19.9091 380.045V402H-38.7273V380.045L-64.3636 332.182ZM53.2244 332.182H72.179V376.909C72.179 382.227 70.9063 386.83 68.3608 390.716C65.8381 394.58 62.3153 397.568 57.7926 399.682C53.2699 401.773 48.0199 402.818 42.0426 402.818C36.0199 402.818 30.7472 401.773 26.2244 399.682C21.7017 397.568 18.179 394.58 15.6562 390.716C13.1562 386.83 11.9062 382.227 11.9062 376.909V332.182H30.8608V375.273C30.8608 377.432 31.3381 379.364 32.2926 381.068C33.2472 382.75 34.5653 384.068 36.2472 385.023C37.9517 385.977 39.8835 386.455 42.0426 386.455C44.2244 386.455 46.1563 385.977 47.8381 385.023C49.5199 384.068 50.8381 382.75 51.7926 381.068C52.7472 379.364 53.2244 377.432 53.2244 375.273V332.182ZM81.1875 332.182H104.778L121.006 371.727H121.824L138.051 332.182H161.642V402H143.097V361.636H142.551L127.006 401.455H115.824L100.278 361.364H99.733V402H81.1875V332.182ZM170.625 332.182H194.216L210.443 371.727H211.261L227.489 332.182H251.08V402H232.534V361.636H231.989L216.443 401.455H205.261L189.716 361.364H189.17V402H170.625V332.182ZM257.199 332.182H278.335L291.972 360.545H292.517L306.153 332.182H327.29L301.653 380.045V402H282.835V380.045L257.199 332.182ZM349.73 332.182H370.866L384.503 360.545H385.048L398.685 332.182H419.821L394.185 380.045V402H375.366V380.045L349.73 332.182ZM467.318 332.182H486.273V376.909C486.273 382.227 485 386.83 482.455 390.716C479.932 394.58 476.409 397.568 471.886 399.682C467.364 401.773 462.114 402.818 456.136 402.818C450.114 402.818 444.841 401.773 440.318 399.682C435.795 397.568 432.273 394.58 429.75 390.716C427.25 386.83 426 382.227 426 376.909V332.182H444.955V375.273C444.955 377.432 445.432 379.364 446.386 381.068C447.341 382.75 448.659 384.068 450.341 385.023C452.045 385.977 453.977 386.455 456.136 386.455C458.318 386.455 460.25 385.977 461.932 385.023C463.614 384.068 464.932 382.75 465.886 381.068C466.841 379.364 467.318 377.432 467.318 375.273V332.182ZM495.281 332.182H518.872L535.099 371.727H535.918L552.145 332.182H575.736V402H557.19V361.636H556.645L541.099 401.455H529.918L514.372 361.364H513.827V402H495.281V332.182ZM584.719 332.182H608.31L624.537 371.727H625.355L641.582 332.182H665.173V402H646.628V361.636H646.082L630.537 401.455H619.355L603.81 361.364H603.264V402H584.719V332.182ZM671.293 332.182H692.429L706.065 360.545H706.611L720.247 332.182H741.384L715.747 380.045V402H696.929V380.045L671.293 332.182ZM763.824 332.182H784.96L798.597 360.545H799.142L812.778 332.182H833.915L808.278 380.045V402H789.46V380.045L763.824 332.182ZM881.412 332.182H900.366V376.909C900.366 382.227 899.094 386.83 896.548 390.716C894.026 394.58 890.503 397.568 885.98 399.682C881.457 401.773 876.207 402.818 870.23 402.818C864.207 402.818 858.935 401.773 854.412 399.682C849.889 397.568 846.366 394.58 843.844 390.716C841.344 386.83 840.094 382.227 840.094 376.909V332.182H859.048V375.273C859.048 377.432 859.526 379.364 860.48 381.068C861.435 382.75 862.753 384.068 864.435 385.023C866.139 385.977 868.071 386.455 870.23 386.455C872.412 386.455 874.344 385.977 876.026 385.023C877.707 384.068 879.026 382.75 879.98 381.068C880.935 379.364 881.412 377.432 881.412 375.273V332.182ZM909.375 332.182H932.966L949.193 371.727H950.011L966.239 332.182H989.83V402H971.284V361.636H970.739L955.193 401.455H944.011L928.466 361.364H927.92V402H909.375V332.182ZM998.812 332.182H1022.4L1038.63 371.727H1039.45L1055.68 332.182H1079.27V402H1060.72V361.636H1060.18L1044.63 401.455H1033.45L1017.9 361.364H1017.36V402H998.812V332.182ZM1085.39 332.182H1106.52L1120.16 360.545H1120.7L1134.34 332.182H1155.48L1129.84 380.045V402H1111.02V380.045L1085.39 332.182ZM1177.92 332.182H1199.05L1212.69 360.545H1213.24L1226.87 332.182H1248.01L1222.37 380.045V402H1203.55V380.045L1177.92 332.182ZM1295.51 332.182H1314.46V376.909C1314.46 382.227 1313.19 386.83 1310.64 390.716C1308.12 394.58 1304.6 397.568 1300.07 399.682C1295.55 401.773 1290.3 402.818 1284.32 402.818C1278.3 402.818 1273.03 401.773 1268.51 399.682C1263.98 397.568 1260.46 394.58 1257.94 390.716C1255.44 386.83 1254.19 382.227 1254.19 376.909V332.182H1273.14V375.273C1273.14 377.432 1273.62 379.364 1274.57 381.068C1275.53 382.75 1276.85 384.068 1278.53 385.023C1280.23 385.977 1282.16 386.455 1284.32 386.455C1286.51 386.455 1288.44 385.977 1290.12 385.023C1291.8 384.068 1293.12 382.75 1294.07 381.068C1295.03 379.364 1295.51 377.432 1295.51 375.273V332.182ZM1323.47 332.182H1347.06L1363.29 371.727H1364.11L1380.33 332.182H1403.92V402H1385.38V361.636H1384.83L1369.29 401.455H1358.11L1342.56 361.364H1342.01V402H1323.47V332.182ZM1412.91 332.182H1436.5L1452.72 371.727H1453.54L1469.77 332.182H1493.36V402H1474.82V361.636H1474.27L1458.72 401.455H1447.54L1432 361.364H1431.45V402H1412.91V332.182ZM1499.48 332.182H1520.62L1534.25 360.545H1534.8L1548.43 332.182H1569.57L1543.93 380.045V402H1525.12V380.045L1499.48 332.182ZM1611.14 332.182H1632.27L1645.91 360.545H1646.45L1660.09 332.182H1681.23L1655.59 380.045V402H1636.77V380.045L1611.14 332.182ZM1728.72 332.182H1747.68V376.909C1747.68 382.227 1746.41 386.83 1743.86 390.716C1741.34 394.58 1737.82 397.568 1733.29 399.682C1728.77 401.773 1723.52 402.818 1717.54 402.818C1711.52 402.818 1706.25 401.773 1701.72 399.682C1697.2 397.568 1693.68 394.58 1691.16 390.716C1688.66 386.83 1687.41 382.227 1687.41 376.909V332.182H1706.36V375.273C1706.36 377.432 1706.84 379.364 1707.79 381.068C1708.75 382.75 1710.07 384.068 1711.75 385.023C1713.45 385.977 1715.38 386.455 1717.54 386.455C1719.72 386.455 1721.66 385.977 1723.34 385.023C1725.02 384.068 1726.34 382.75 1727.29 381.068C1728.25 379.364 1728.72 377.432 1728.72 375.273V332.182ZM1756.69 332.182H1780.28L1796.51 371.727H1797.32L1813.55 332.182H1837.14V402H1818.6V361.636H1818.05L1802.51 401.455H1791.32L1775.78 361.364H1775.23V402H1756.69V332.182ZM1846.12 332.182H1869.72L1885.94 371.727H1886.76L1902.99 332.182H1926.58V402H1908.03V361.636H1907.49L1891.94 401.455H1880.76L1865.22 361.364H1864.67V402H1846.12V332.182ZM1932.7 332.182H1953.84L1967.47 360.545H1968.02L1981.65 332.182H2002.79L1977.15 380.045V402H1958.34V380.045L1932.7 332.182ZM2025.23 332.182H2046.37L2060 360.545H2060.55L2074.18 332.182H2095.32L2069.68 380.045V402H2050.87V380.045L2025.23 332.182ZM2142.82 332.182H2161.77V376.909C2161.77 382.227 2160.5 386.83 2157.95 390.716C2155.43 394.58 2151.91 397.568 2147.39 399.682C2142.86 401.773 2137.61 402.818 2131.64 402.818C2125.61 402.818 2120.34 401.773 2115.82 399.682C2111.3 397.568 2107.77 394.58 2105.25 390.716C2102.75 386.83 2101.5 382.227 2101.5 376.909V332.182H2120.45V375.273C2120.45 377.432 2120.93 379.364 2121.89 381.068C2122.84 382.75 2124.16 384.068 2125.84 385.023C2127.55 385.977 2129.48 386.455 2131.64 386.455C2133.82 386.455 2135.75 385.977 2137.43 385.023C2139.11 384.068 2140.43 382.75 2141.39 381.068C2142.34 379.364 2142.82 377.432 2142.82 375.273V332.182ZM2170.78 332.182H2194.37L2210.6 371.727H2211.42L2227.64 332.182H2251.24V402H2232.69V361.636H2232.14L2216.6 401.455H2205.42L2189.87 361.364H2189.33V402H2170.78V332.182ZM2260.22 332.182H2283.81L2300.04 371.727H2300.86L2317.08 332.182H2340.67V402H2322.13V361.636H2321.58L2306.04 401.455H2294.86L2279.31 361.364H2278.76V402H2260.22V332.182ZM2346.79 332.182H2367.93L2381.57 360.545H2382.11L2395.75 332.182H2416.88L2391.25 380.045V402H2372.43V380.045L2346.79 332.182ZM2439.32 332.182H2460.46L2474.1 360.545H2474.64L2488.28 332.182H2509.41L2483.78 380.045V402H2464.96V380.045L2439.32 332.182ZM2556.91 332.182H2575.87V376.909C2575.87 382.227 2574.59 386.83 2572.05 390.716C2569.53 394.58 2566 397.568 2561.48 399.682C2556.96 401.773 2551.71 402.818 2545.73 402.818C2539.71 402.818 2534.43 401.773 2529.91 399.682C2525.39 397.568 2521.87 394.58 2519.34 390.716C2516.84 386.83 2515.59 382.227 2515.59 376.909V332.182H2534.55V375.273C2534.55 377.432 2535.03 379.364 2535.98 381.068C2536.93 382.75 2538.25 384.068 2539.93 385.023C2541.64 385.977 2543.57 386.455 2545.73 386.455C2547.91 386.455 2549.84 385.977 2551.53 385.023C2553.21 384.068 2554.53 382.75 2555.48 381.068C2556.43 379.364 2556.91 377.432 2556.91 375.273V332.182ZM2584.88 332.182H2608.47L2624.69 371.727H2625.51L2641.74 332.182H2665.33V402H2646.78V361.636H2646.24L2630.69 401.455H2619.51L2603.97 361.364H2603.42V402H2584.88V332.182ZM2674.31 332.182H2697.9L2714.13 371.727H2714.95L2731.18 332.182H2754.77V402H2736.22V361.636H2735.68L2720.13 401.455H2708.95L2693.4 361.364H2692.86V402H2674.31V332.182ZM2760.89 332.182H2782.02L2795.66 360.545H2796.2L2809.84 332.182H2830.98L2805.34 380.045V402H2786.52V380.045L2760.89 332.182ZM2853.42 332.182H2874.55L2888.19 360.545H2888.74L2902.37 332.182H2923.51L2897.87 380.045V402H2879.05V380.045L2853.42 332.182ZM2971.01 332.182H2989.96V376.909C2989.96 382.227 2988.69 386.83 2986.14 390.716C2983.62 394.58 2980.1 397.568 2975.57 399.682C2971.05 401.773 2965.8 402.818 2959.82 402.818C2953.8 402.818 2948.53 401.773 2944.01 399.682C2939.48 397.568 2935.96 394.58 2933.44 390.716C2930.94 386.83 2929.69 382.227 2929.69 376.909V332.182H2948.64V375.273C2948.64 377.432 2949.12 379.364 2950.07 381.068C2951.03 382.75 2952.35 384.068 2954.03 385.023C2955.73 385.977 2957.66 386.455 2959.82 386.455C2962.01 386.455 2963.94 385.977 2965.62 385.023C2967.3 384.068 2968.62 382.75 2969.57 381.068C2970.53 379.364 2971.01 377.432 2971.01 375.273V332.182ZM2998.97 332.182H3022.56L3038.79 371.727H3039.61L3055.83 332.182H3079.42V402H3060.88V361.636H3060.33L3044.79 401.455H3033.61L3018.06 361.364H3017.51V402H2998.97V332.182ZM3088.41 332.182H3112L3128.22 371.727H3129.04L3145.27 332.182H3168.86V402H3150.32V361.636H3149.77L3134.22 401.455H3123.04L3107.5 361.364H3106.95V402H3088.41V332.182ZM3174.98 332.182H3196.12L3209.75 360.545H3210.3L3223.93 332.182H3245.07L3219.43 380.045V402H3200.62V380.045L3174.98 332.182ZM-64.3636 448.182H-43.2273L-29.5909 476.545H-29.0455L-15.4091 448.182H5.72728L-19.9091 496.045V518H-38.7273V496.045L-64.3636 448.182ZM53.2244 448.182H72.179V492.909C72.179 498.227 70.9063 502.83 68.3608 506.716C65.8381 510.58 62.3153 513.568 57.7926 515.682C53.2699 517.773 48.0199 518.818 42.0426 518.818C36.0199 518.818 30.7472 517.773 26.2244 515.682C21.7017 513.568 18.179 510.58 15.6562 506.716C13.1562 502.83 11.9062 498.227 11.9062 492.909V448.182H30.8608V491.273C30.8608 493.432 31.3381 495.364 32.2926 497.068C33.2472 498.75 34.5653 500.068 36.2472 501.023C37.9517 501.977 39.8835 502.455 42.0426 502.455C44.2244 502.455 46.1563 501.977 47.8381 501.023C49.5199 500.068 50.8381 498.75 51.7926 497.068C52.7472 495.364 53.2244 493.432 53.2244 491.273V448.182ZM81.1875 448.182H104.778L121.006 487.727H121.824L138.051 448.182H161.642V518H143.097V477.636H142.551L127.006 517.455H115.824L100.278 477.364H99.733V518H81.1875V448.182ZM170.625 448.182H194.216L210.443 487.727H211.261L227.489 448.182H251.08V518H232.534V477.636H231.989L216.443 517.455H205.261L189.716 477.364H189.17V518H170.625V448.182ZM257.199 448.182H278.335L291.972 476.545H292.517L306.153 448.182H327.29L301.653 496.045V518H282.835V496.045L257.199 448.182ZM349.73 448.182H370.866L384.503 476.545H385.048L398.685 448.182H419.821L394.185 496.045V518H375.366V496.045L349.73 448.182ZM467.318 448.182H486.273V492.909C486.273 498.227 485 502.83 482.455 506.716C479.932 510.58 476.409 513.568 471.886 515.682C467.364 517.773 462.114 518.818 456.136 518.818C450.114 518.818 444.841 517.773 440.318 515.682C435.795 513.568 432.273 510.58 429.75 506.716C427.25 502.83 426 498.227 426 492.909V448.182H444.955V491.273C444.955 493.432 445.432 495.364 446.386 497.068C447.341 498.75 448.659 500.068 450.341 501.023C452.045 501.977 453.977 502.455 456.136 502.455C458.318 502.455 460.25 501.977 461.932 501.023C463.614 500.068 464.932 498.75 465.886 497.068C466.841 495.364 467.318 493.432 467.318 491.273V448.182ZM495.281 448.182H518.872L535.099 487.727H535.918L552.145 448.182H575.736V518H557.19V477.636H556.645L541.099 517.455H529.918L514.372 477.364H513.827V518H495.281V448.182ZM584.719 448.182H608.31L624.537 487.727H625.355L641.582 448.182H665.173V518H646.628V477.636H646.082L630.537 517.455H619.355L603.81 477.364H603.264V518H584.719V448.182ZM671.293 448.182H692.429L706.065 476.545H706.611L720.247 448.182H741.384L715.747 496.045V518H696.929V496.045L671.293 448.182ZM763.824 448.182H784.96L798.597 476.545H799.142L812.778 448.182H833.915L808.278 496.045V518H789.46V496.045L763.824 448.182ZM881.412 448.182H900.366V492.909C900.366 498.227 899.094 502.83 896.548 506.716C894.026 510.58 890.503 513.568 885.98 515.682C881.457 517.773 876.207 518.818 870.23 518.818C864.207 518.818 858.935 517.773 854.412 515.682C849.889 513.568 846.366 510.58 843.844 506.716C841.344 502.83 840.094 498.227 840.094 492.909V448.182H859.048V491.273C859.048 493.432 859.526 495.364 860.48 497.068C861.435 498.75 862.753 500.068 864.435 501.023C866.139 501.977 868.071 502.455 870.23 502.455C872.412 502.455 874.344 501.977 876.026 501.023C877.707 500.068 879.026 498.75 879.98 497.068C880.935 495.364 881.412 493.432 881.412 491.273V448.182ZM909.375 448.182H932.966L949.193 487.727H950.011L966.239 448.182H989.83V518H971.284V477.636H970.739L955.193 517.455H944.011L928.466 477.364H927.92V518H909.375V448.182ZM998.812 448.182H1022.4L1038.63 487.727H1039.45L1055.68 448.182H1079.27V518H1060.72V477.636H1060.18L1044.63 517.455H1033.45L1017.9 477.364H1017.36V518H998.812V448.182ZM1085.39 448.182H1106.52L1120.16 476.545H1120.7L1134.34 448.182H1155.48L1129.84 496.045V518H1111.02V496.045L1085.39 448.182ZM1177.92 448.182H1199.05L1212.69 476.545H1213.24L1226.87 448.182H1248.01L1222.37 496.045V518H1203.55V496.045L1177.92 448.182ZM1295.51 448.182H1314.46V492.909C1314.46 498.227 1313.19 502.83 1310.64 506.716C1308.12 510.58 1304.6 513.568 1300.07 515.682C1295.55 517.773 1290.3 518.818 1284.32 518.818C1278.3 518.818 1273.03 517.773 1268.51 515.682C1263.98 513.568 1260.46 510.58 1257.94 506.716C1255.44 502.83 1254.19 498.227 1254.19 492.909V448.182H1273.14V491.273C1273.14 493.432 1273.62 495.364 1274.57 497.068C1275.53 498.75 1276.85 500.068 1278.53 501.023C1280.23 501.977 1282.16 502.455 1284.32 502.455C1286.51 502.455 1288.44 501.977 1290.12 501.023C1291.8 500.068 1293.12 498.75 1294.07 497.068C1295.03 495.364 1295.51 493.432 1295.51 491.273V448.182ZM1323.47 448.182H1347.06L1363.29 487.727H1364.11L1380.33 448.182H1403.92V518H1385.38V477.636H1384.83L1369.29 517.455H1358.11L1342.56 477.364H1342.01V518H1323.47V448.182ZM1412.91 448.182H1436.5L1452.72 487.727H1453.54L1469.77 448.182H1493.36V518H1474.82V477.636H1474.27L1458.72 517.455H1447.54L1432 477.364H1431.45V518H1412.91V448.182ZM1499.48 448.182H1520.62L1534.25 476.545H1534.8L1548.43 448.182H1569.57L1543.93 496.045V518H1525.12V496.045L1499.48 448.182ZM1592.01 448.182H1613.15L1626.78 476.545H1627.33L1640.97 448.182H1662.1L1636.47 496.045V518H1617.65V496.045L1592.01 448.182ZM1709.6 448.182H1728.55V492.909C1728.55 498.227 1727.28 502.83 1724.74 506.716C1722.21 510.58 1718.69 513.568 1714.17 515.682C1709.64 517.773 1704.39 518.818 1698.42 518.818C1692.39 518.818 1687.12 517.773 1682.6 515.682C1678.08 513.568 1674.55 510.58 1672.03 506.716C1669.53 502.83 1668.28 498.227 1668.28 492.909V448.182H1687.24V491.273C1687.24 493.432 1687.71 495.364 1688.67 497.068C1689.62 498.75 1690.94 500.068 1692.62 501.023C1694.33 501.977 1696.26 502.455 1698.42 502.455C1700.6 502.455 1702.53 501.977 1704.21 501.023C1705.89 500.068 1707.21 498.75 1708.17 497.068C1709.12 495.364 1709.6 493.432 1709.6 491.273V448.182ZM1737.56 448.182H1761.15L1777.38 487.727H1778.2L1794.43 448.182H1818.02V518H1799.47V477.636H1798.93L1783.38 517.455H1772.2L1756.65 477.364H1756.11V518H1737.56V448.182ZM1827 448.182H1850.59L1866.82 487.727H1867.64L1883.86 448.182H1907.45V518H1888.91V477.636H1888.36L1872.82 517.455H1861.64L1846.09 477.364H1845.55V518H1827V448.182ZM1913.57 448.182H1934.71L1948.35 476.545H1948.89L1962.53 448.182H1983.66L1958.03 496.045V518H1939.21V496.045L1913.57 448.182ZM2006.11 448.182H2027.24L2040.88 476.545H2041.42L2055.06 448.182H2076.2L2050.56 496.045V518H2031.74V496.045L2006.11 448.182ZM2123.69 448.182H2142.65V492.909C2142.65 498.227 2141.38 502.83 2138.83 506.716C2136.31 510.58 2132.78 513.568 2128.26 515.682C2123.74 517.773 2118.49 518.818 2112.51 518.818C2106.49 518.818 2101.22 517.773 2096.69 515.682C2092.17 513.568 2088.65 510.58 2086.12 506.716C2083.62 502.83 2082.38 498.227 2082.38 492.909V448.182H2101.33V491.273C2101.33 493.432 2101.81 495.364 2102.76 497.068C2103.72 498.75 2105.03 500.068 2106.72 501.023C2108.42 501.977 2110.35 502.455 2112.51 502.455C2114.69 502.455 2116.63 501.977 2118.31 501.023C2119.99 500.068 2121.31 498.75 2122.26 497.068C2123.22 495.364 2123.69 493.432 2123.69 491.273V448.182ZM2151.66 448.182H2175.25L2191.47 487.727H2192.29L2208.52 448.182H2232.11V518H2213.57V477.636H2213.02L2197.47 517.455H2186.29L2170.75 477.364H2170.2V518H2151.66V448.182ZM2241.09 448.182H2264.68L2280.91 487.727H2281.73L2297.96 448.182H2321.55V518H2303V477.636H2302.46L2286.91 517.455H2275.73L2260.18 477.364H2259.64V518H2241.09V448.182ZM2327.67 448.182H2348.8L2362.44 476.545H2362.99L2376.62 448.182H2397.76L2372.12 496.045V518H2353.3V496.045L2327.67 448.182ZM2420.2 448.182H2441.34L2454.97 476.545H2455.52L2469.15 448.182H2490.29L2464.65 496.045V518H2445.84V496.045L2420.2 448.182ZM2537.79 448.182H2556.74V492.909C2556.74 498.227 2555.47 502.83 2552.92 506.716C2550.4 510.58 2546.88 513.568 2542.36 515.682C2537.83 517.773 2532.58 518.818 2526.61 518.818C2520.58 518.818 2515.31 517.773 2510.79 515.682C2506.26 513.568 2502.74 510.58 2500.22 506.716C2497.72 502.83 2496.47 498.227 2496.47 492.909V448.182H2515.42V491.273C2515.42 493.432 2515.9 495.364 2516.86 497.068C2517.81 498.75 2519.13 500.068 2520.81 501.023C2522.51 501.977 2524.45 502.455 2526.61 502.455C2528.79 502.455 2530.72 501.977 2532.4 501.023C2534.08 500.068 2535.4 498.75 2536.36 497.068C2537.31 495.364 2537.79 493.432 2537.79 491.273V448.182ZM2565.75 448.182H2589.34L2605.57 487.727H2606.39L2622.61 448.182H2646.2V518H2627.66V477.636H2627.11L2611.57 517.455H2600.39L2584.84 477.364H2584.3V518H2565.75V448.182ZM2655.19 448.182H2678.78L2695.01 487.727H2695.82L2712.05 448.182H2735.64V518H2717.1V477.636H2716.55L2701.01 517.455H2689.82L2674.28 477.364H2673.73V518H2655.19V448.182ZM2741.76 448.182H2762.9L2776.53 476.545H2777.08L2790.72 448.182H2811.85L2786.22 496.045V518H2767.4V496.045L2741.76 448.182ZM2834.29 448.182H2855.43L2869.07 476.545H2869.61L2883.25 448.182H2904.38L2878.75 496.045V518H2859.93V496.045L2834.29 448.182ZM2951.88 448.182H2970.84V492.909C2970.84 498.227 2969.56 502.83 2967.02 506.716C2964.49 510.58 2960.97 513.568 2956.45 515.682C2951.93 517.773 2946.68 518.818 2940.7 518.818C2934.68 518.818 2929.4 517.773 2924.88 515.682C2920.36 513.568 2916.84 510.58 2914.31 506.716C2911.81 502.83 2910.56 498.227 2910.56 492.909V448.182H2929.52V491.273C2929.52 493.432 2929.99 495.364 2930.95 497.068C2931.9 498.75 2933.22 500.068 2934.9 501.023C2936.61 501.977 2938.54 502.455 2940.7 502.455C2942.88 502.455 2944.81 501.977 2946.49 501.023C2948.18 500.068 2949.49 498.75 2950.45 497.068C2951.4 495.364 2951.88 493.432 2951.88 491.273V448.182ZM2979.84 448.182H3003.43L3019.66 487.727H3020.48L3036.71 448.182H3060.3V518H3041.75V477.636H3041.21L3025.66 517.455H3014.48L2998.93 477.364H2998.39V518H2979.84V448.182ZM3069.28 448.182H3092.87L3109.1 487.727H3109.92L3126.14 448.182H3149.74V518H3131.19V477.636H3130.64L3115.1 517.455H3103.92L3088.37 477.364H3087.83V518H3069.28V448.182ZM3155.86 448.182H3176.99L3190.63 476.545H3191.17L3204.81 448.182H3225.95L3200.31 496.045V518H3181.49V496.045L3155.86 448.182ZM-64.3636 564.182H-43.2273L-29.5909 592.545H-29.0455L-15.4091 564.182H5.72728L-19.9091 612.045V634H-38.7273V612.045L-64.3636 564.182ZM53.2244 564.182H72.179V608.909C72.179 614.227 70.9063 618.83 68.3608 622.716C65.8381 626.58 62.3153 629.568 57.7926 631.682C53.2699 633.773 48.0199 634.818 42.0426 634.818C36.0199 634.818 30.7472 633.773 26.2244 631.682C21.7017 629.568 18.179 626.58 15.6562 622.716C13.1562 618.83 11.9062 614.227 11.9062 608.909V564.182H30.8608V607.273C30.8608 609.432 31.3381 611.364 32.2926 613.068C33.2472 614.75 34.5653 616.068 36.2472 617.023C37.9517 617.977 39.8835 618.455 42.0426 618.455C44.2244 618.455 46.1563 617.977 47.8381 617.023C49.5199 616.068 50.8381 614.75 51.7926 613.068C52.7472 611.364 53.2244 609.432 53.2244 607.273V564.182ZM81.1875 564.182H104.778L121.006 603.727H121.824L138.051 564.182H161.642V634H143.097V593.636H142.551L127.006 633.455H115.824L100.278 593.364H99.733V634H81.1875V564.182ZM170.625 564.182H194.216L210.443 603.727H211.261L227.489 564.182H251.08V634H232.534V593.636H231.989L216.443 633.455H205.261L189.716 593.364H189.17V634H170.625V564.182ZM257.199 564.182H278.335L291.972 592.545H292.517L306.153 564.182H327.29L301.653 612.045V634H282.835V612.045L257.199 564.182ZM349.73 564.182H370.866L384.503 592.545H385.048L398.685 564.182H419.821L394.185 612.045V634H375.366V612.045L349.73 564.182ZM467.318 564.182H486.273V608.909C486.273 614.227 485 618.83 482.455 622.716C479.932 626.58 476.409 629.568 471.886 631.682C467.364 633.773 462.114 634.818 456.136 634.818C450.114 634.818 444.841 633.773 440.318 631.682C435.795 629.568 432.273 626.58 429.75 622.716C427.25 618.83 426 614.227 426 608.909V564.182H444.955V607.273C444.955 609.432 445.432 611.364 446.386 613.068C447.341 614.75 448.659 616.068 450.341 617.023C452.045 617.977 453.977 618.455 456.136 618.455C458.318 618.455 460.25 617.977 461.932 617.023C463.614 616.068 464.932 614.75 465.886 613.068C466.841 611.364 467.318 609.432 467.318 607.273V564.182ZM495.281 564.182H518.872L535.099 603.727H535.918L552.145 564.182H575.736V634H557.19V593.636H556.645L541.099 633.455H529.918L514.372 593.364H513.827V634H495.281V564.182ZM584.719 564.182H608.31L624.537 603.727H625.355L641.582 564.182H665.173V634H646.628V593.636H646.082L630.537 633.455H619.355L603.81 593.364H603.264V634H584.719V564.182ZM671.293 564.182H692.429L706.065 592.545H706.611L720.247 564.182H741.384L715.747 612.045V634H696.929V612.045L671.293 564.182ZM763.824 564.182H784.96L798.597 592.545H799.142L812.778 564.182H833.915L808.278 612.045V634H789.46V612.045L763.824 564.182ZM881.412 564.182H900.366V608.909C900.366 614.227 899.094 618.83 896.548 622.716C894.026 626.58 890.503 629.568 885.98 631.682C881.457 633.773 876.207 634.818 870.23 634.818C864.207 634.818 858.935 633.773 854.412 631.682C849.889 629.568 846.366 626.58 843.844 622.716C841.344 618.83 840.094 614.227 840.094 608.909V564.182H859.048V607.273C859.048 609.432 859.526 611.364 860.48 613.068C861.435 614.75 862.753 616.068 864.435 617.023C866.139 617.977 868.071 618.455 870.23 618.455C872.412 618.455 874.344 617.977 876.026 617.023C877.707 616.068 879.026 614.75 879.98 613.068C880.935 611.364 881.412 609.432 881.412 607.273V564.182ZM909.375 564.182H932.966L949.193 603.727H950.011L966.239 564.182H989.83V634H971.284V593.636H970.739L955.193 633.455H944.011L928.466 593.364H927.92V634H909.375V564.182ZM998.812 564.182H1022.4L1038.63 603.727H1039.45L1055.68 564.182H1079.27V634H1060.72V593.636H1060.18L1044.63 633.455H1033.45L1017.9 593.364H1017.36V634H998.812V564.182ZM1085.39 564.182H1106.52L1120.16 592.545H1120.7L1134.34 564.182H1155.48L1129.84 612.045V634H1111.02V612.045L1085.39 564.182ZM1177.92 564.182H1199.05L1212.69 592.545H1213.24L1226.87 564.182H1248.01L1222.37 612.045V634H1203.55V612.045L1177.92 564.182ZM1295.51 564.182H1314.46V608.909C1314.46 614.227 1313.19 618.83 1310.64 622.716C1308.12 626.58 1304.6 629.568 1300.07 631.682C1295.55 633.773 1290.3 634.818 1284.32 634.818C1278.3 634.818 1273.03 633.773 1268.51 631.682C1263.98 629.568 1260.46 626.58 1257.94 622.716C1255.44 618.83 1254.19 614.227 1254.19 608.909V564.182H1273.14V607.273C1273.14 609.432 1273.62 611.364 1274.57 613.068C1275.53 614.75 1276.85 616.068 1278.53 617.023C1280.23 617.977 1282.16 618.455 1284.32 618.455C1286.51 618.455 1288.44 617.977 1290.12 617.023C1291.8 616.068 1293.12 614.75 1294.07 613.068C1295.03 611.364 1295.51 609.432 1295.51 607.273V564.182ZM1323.47 564.182H1347.06L1363.29 603.727H1364.11L1380.33 564.182H1403.92V634H1385.38V593.636H1384.83L1369.29 633.455H1358.11L1342.56 593.364H1342.01V634H1323.47V564.182ZM1412.91 564.182H1436.5L1452.72 603.727H1453.54L1469.77 564.182H1493.36V634H1474.82V593.636H1474.27L1458.72 633.455H1447.54L1432 593.364H1431.45V634H1412.91V564.182ZM1499.48 564.182H1520.62L1534.25 592.545H1534.8L1548.43 564.182H1569.57L1543.93 612.045V634H1525.12V612.045L1499.48 564.182ZM1611.14 564.182H1632.27L1645.91 592.545H1646.45L1660.09 564.182H1681.23L1655.59 612.045V634H1636.77V612.045L1611.14 564.182ZM1728.72 564.182H1747.68V608.909C1747.68 614.227 1746.41 618.83 1743.86 622.716C1741.34 626.58 1737.82 629.568 1733.29 631.682C1728.77 633.773 1723.52 634.818 1717.54 634.818C1711.52 634.818 1706.25 633.773 1701.72 631.682C1697.2 629.568 1693.68 626.58 1691.16 622.716C1688.66 618.83 1687.41 614.227 1687.41 608.909V564.182H1706.36V607.273C1706.36 609.432 1706.84 611.364 1707.79 613.068C1708.75 614.75 1710.07 616.068 1711.75 617.023C1713.45 617.977 1715.38 618.455 1717.54 618.455C1719.72 618.455 1721.66 617.977 1723.34 617.023C1725.02 616.068 1726.34 614.75 1727.29 613.068C1728.25 611.364 1728.72 609.432 1728.72 607.273V564.182ZM1756.69 564.182H1780.28L1796.51 603.727H1797.32L1813.55 564.182H1837.14V634H1818.6V593.636H1818.05L1802.51 633.455H1791.32L1775.78 593.364H1775.23V634H1756.69V564.182ZM1846.12 564.182H1869.72L1885.94 603.727H1886.76L1902.99 564.182H1926.58V634H1908.03V593.636H1907.49L1891.94 633.455H1880.76L1865.22 593.364H1864.67V634H1846.12V564.182ZM1932.7 564.182H1953.84L1967.47 592.545H1968.02L1981.65 564.182H2002.79L1977.15 612.045V634H1958.34V612.045L1932.7 564.182ZM2025.23 564.182H2046.37L2060 592.545H2060.55L2074.18 564.182H2095.32L2069.68 612.045V634H2050.87V612.045L2025.23 564.182ZM2142.82 564.182H2161.77V608.909C2161.77 614.227 2160.5 618.83 2157.95 622.716C2155.43 626.58 2151.91 629.568 2147.39 631.682C2142.86 633.773 2137.61 634.818 2131.64 634.818C2125.61 634.818 2120.34 633.773 2115.82 631.682C2111.3 629.568 2107.77 626.58 2105.25 622.716C2102.75 618.83 2101.5 614.227 2101.5 608.909V564.182H2120.45V607.273C2120.45 609.432 2120.93 611.364 2121.89 613.068C2122.84 614.75 2124.16 616.068 2125.84 617.023C2127.55 617.977 2129.48 618.455 2131.64 618.455C2133.82 618.455 2135.75 617.977 2137.43 617.023C2139.11 616.068 2140.43 614.75 2141.39 613.068C2142.34 611.364 2142.82 609.432 2142.82 607.273V564.182ZM2170.78 564.182H2194.37L2210.6 603.727H2211.42L2227.64 564.182H2251.24V634H2232.69V593.636H2232.14L2216.6 633.455H2205.42L2189.87 593.364H2189.33V634H2170.78V564.182ZM2260.22 564.182H2283.81L2300.04 603.727H2300.86L2317.08 564.182H2340.67V634H2322.13V593.636H2321.58L2306.04 633.455H2294.86L2279.31 593.364H2278.76V634H2260.22V564.182ZM2346.79 564.182H2367.93L2381.57 592.545H2382.11L2395.75 564.182H2416.88L2391.25 612.045V634H2372.43V612.045L2346.79 564.182ZM2439.32 564.182H2460.46L2474.1 592.545H2474.64L2488.28 564.182H2509.41L2483.78 612.045V634H2464.96V612.045L2439.32 564.182ZM2556.91 564.182H2575.87V608.909C2575.87 614.227 2574.59 618.83 2572.05 622.716C2569.53 626.58 2566 629.568 2561.48 631.682C2556.96 633.773 2551.71 634.818 2545.73 634.818C2539.71 634.818 2534.43 633.773 2529.91 631.682C2525.39 629.568 2521.87 626.58 2519.34 622.716C2516.84 618.83 2515.59 614.227 2515.59 608.909V564.182H2534.55V607.273C2534.55 609.432 2535.03 611.364 2535.98 613.068C2536.93 614.75 2538.25 616.068 2539.93 617.023C2541.64 617.977 2543.57 618.455 2545.73 618.455C2547.91 618.455 2549.84 617.977 2551.53 617.023C2553.21 616.068 2554.53 614.75 2555.48 613.068C2556.43 611.364 2556.91 609.432 2556.91 607.273V564.182ZM2584.88 564.182H2608.47L2624.69 603.727H2625.51L2641.74 564.182H2665.33V634H2646.78V593.636H2646.24L2630.69 633.455H2619.51L2603.97 593.364H2603.42V634H2584.88V564.182ZM2674.31 564.182H2697.9L2714.13 603.727H2714.95L2731.18 564.182H2754.77V634H2736.22V593.636H2735.68L2720.13 633.455H2708.95L2693.4 593.364H2692.86V634H2674.31V564.182ZM2760.89 564.182H2782.02L2795.66 592.545H2796.2L2809.84 564.182H2830.98L2805.34 612.045V634H2786.52V612.045L2760.89 564.182ZM2853.42 564.182H2874.55L2888.19 592.545H2888.74L2902.37 564.182H2923.51L2897.87 612.045V634H2879.05V612.045L2853.42 564.182ZM2971.01 564.182H2989.96V608.909C2989.96 614.227 2988.69 618.83 2986.14 622.716C2983.62 626.58 2980.1 629.568 2975.57 631.682C2971.05 633.773 2965.8 634.818 2959.82 634.818C2953.8 634.818 2948.53 633.773 2944.01 631.682C2939.48 629.568 2935.96 626.58 2933.44 622.716C2930.94 618.83 2929.69 614.227 2929.69 608.909V564.182H2948.64V607.273C2948.64 609.432 2949.12 611.364 2950.07 613.068C2951.03 614.75 2952.35 616.068 2954.03 617.023C2955.73 617.977 2957.66 618.455 2959.82 618.455C2962.01 618.455 2963.94 617.977 2965.62 617.023C2967.3 616.068 2968.62 614.75 2969.57 613.068C2970.53 611.364 2971.01 609.432 2971.01 607.273V564.182ZM2998.97 564.182H3022.56L3038.79 603.727H3039.61L3055.83 564.182H3079.42V634H3060.88V593.636H3060.33L3044.79 633.455H3033.61L3018.06 593.364H3017.51V634H2998.97V564.182ZM3088.41 564.182H3112L3128.22 603.727H3129.04L3145.27 564.182H3168.86V634H3150.32V593.636H3149.77L3134.22 633.455H3123.04L3107.5 593.364H3106.95V634H3088.41V564.182ZM3174.98 564.182H3196.12L3209.75 592.545H3210.3L3223.93 564.182H3245.07L3219.43 612.045V634H3200.62V612.045L3174.98 564.182ZM-64.3636 680.182H-43.2273L-29.5909 708.545H-29.0455L-15.4091 680.182H5.72728L-19.9091 728.045V750H-38.7273V728.045L-64.3636 680.182ZM53.2244 680.182H72.179V724.909C72.179 730.227 70.9063 734.83 68.3608 738.716C65.8381 742.58 62.3153 745.568 57.7926 747.682C53.2699 749.773 48.0199 750.818 42.0426 750.818C36.0199 750.818 30.7472 749.773 26.2244 747.682C21.7017 745.568 18.179 742.58 15.6562 738.716C13.1562 734.83 11.9062 730.227 11.9062 724.909V680.182H30.8608V723.273C30.8608 725.432 31.3381 727.364 32.2926 729.068C33.2472 730.75 34.5653 732.068 36.2472 733.023C37.9517 733.977 39.8835 734.455 42.0426 734.455C44.2244 734.455 46.1563 733.977 47.8381 733.023C49.5199 732.068 50.8381 730.75 51.7926 729.068C52.7472 727.364 53.2244 725.432 53.2244 723.273V680.182ZM81.1875 680.182H104.778L121.006 719.727H121.824L138.051 680.182H161.642V750H143.097V709.636H142.551L127.006 749.455H115.824L100.278 709.364H99.733V750H81.1875V680.182ZM170.625 680.182H194.216L210.443 719.727H211.261L227.489 680.182H251.08V750H232.534V709.636H231.989L216.443 749.455H205.261L189.716 709.364H189.17V750H170.625V680.182ZM257.199 680.182H278.335L291.972 708.545H292.517L306.153 680.182H327.29L301.653 728.045V750H282.835V728.045L257.199 680.182ZM349.73 680.182H370.866L384.503 708.545H385.048L398.685 680.182H419.821L394.185 728.045V750H375.366V728.045L349.73 680.182ZM467.318 680.182H486.273V724.909C486.273 730.227 485 734.83 482.455 738.716C479.932 742.58 476.409 745.568 471.886 747.682C467.364 749.773 462.114 750.818 456.136 750.818C450.114 750.818 444.841 749.773 440.318 747.682C435.795 745.568 432.273 742.58 429.75 738.716C427.25 734.83 426 730.227 426 724.909V680.182H444.955V723.273C444.955 725.432 445.432 727.364 446.386 729.068C447.341 730.75 448.659 732.068 450.341 733.023C452.045 733.977 453.977 734.455 456.136 734.455C458.318 734.455 460.25 733.977 461.932 733.023C463.614 732.068 464.932 730.75 465.886 729.068C466.841 727.364 467.318 725.432 467.318 723.273V680.182ZM495.281 680.182H518.872L535.099 719.727H535.918L552.145 680.182H575.736V750H557.19V709.636H556.645L541.099 749.455H529.918L514.372 709.364H513.827V750H495.281V680.182ZM584.719 680.182H608.31L624.537 719.727H625.355L641.582 680.182H665.173V750H646.628V709.636H646.082L630.537 749.455H619.355L603.81 709.364H603.264V750H584.719V680.182ZM671.293 680.182H692.429L706.065 708.545H706.611L720.247 680.182H741.384L715.747 728.045V750H696.929V728.045L671.293 680.182ZM763.824 680.182H784.96L798.597 708.545H799.142L812.778 680.182H833.915L808.278 728.045V750H789.46V728.045L763.824 680.182ZM881.412 680.182H900.366V724.909C900.366 730.227 899.094 734.83 896.548 738.716C894.026 742.58 890.503 745.568 885.98 747.682C881.457 749.773 876.207 750.818 870.23 750.818C864.207 750.818 858.935 749.773 854.412 747.682C849.889 745.568 846.366 742.58 843.844 738.716C841.344 734.83 840.094 730.227 840.094 724.909V680.182H859.048V723.273C859.048 725.432 859.526 727.364 860.48 729.068C861.435 730.75 862.753 732.068 864.435 733.023C866.139 733.977 868.071 734.455 870.23 734.455C872.412 734.455 874.344 733.977 876.026 733.023C877.707 732.068 879.026 730.75 879.98 729.068C880.935 727.364 881.412 725.432 881.412 723.273V680.182ZM909.375 680.182H932.966L949.193 719.727H950.011L966.239 680.182H989.83V750H971.284V709.636H970.739L955.193 749.455H944.011L928.466 709.364H927.92V750H909.375V680.182ZM998.812 680.182H1022.4L1038.63 719.727H1039.45L1055.68 680.182H1079.27V750H1060.72V709.636H1060.18L1044.63 749.455H1033.45L1017.9 709.364H1017.36V750H998.812V680.182ZM1085.39 680.182H1106.52L1120.16 708.545H1120.7L1134.34 680.182H1155.48L1129.84 728.045V750H1111.02V728.045L1085.39 680.182ZM1177.92 680.182H1199.05L1212.69 708.545H1213.24L1226.87 680.182H1248.01L1222.37 728.045V750H1203.55V728.045L1177.92 680.182ZM1295.51 680.182H1314.46V724.909C1314.46 730.227 1313.19 734.83 1310.64 738.716C1308.12 742.58 1304.6 745.568 1300.07 747.682C1295.55 749.773 1290.3 750.818 1284.32 750.818C1278.3 750.818 1273.03 749.773 1268.51 747.682C1263.98 745.568 1260.46 742.58 1257.94 738.716C1255.44 734.83 1254.19 730.227 1254.19 724.909V680.182H1273.14V723.273C1273.14 725.432 1273.62 727.364 1274.57 729.068C1275.53 730.75 1276.85 732.068 1278.53 733.023C1280.23 733.977 1282.16 734.455 1284.32 734.455C1286.51 734.455 1288.44 733.977 1290.12 733.023C1291.8 732.068 1293.12 730.75 1294.07 729.068C1295.03 727.364 1295.51 725.432 1295.51 723.273V680.182ZM1323.47 680.182H1347.06L1363.29 719.727H1364.11L1380.33 680.182H1403.92V750H1385.38V709.636H1384.83L1369.29 749.455H1358.11L1342.56 709.364H1342.01V750H1323.47V680.182ZM1412.91 680.182H1436.5L1452.72 719.727H1453.54L1469.77 680.182H1493.36V750H1474.82V709.636H1474.27L1458.72 749.455H1447.54L1432 709.364H1431.45V750H1412.91V680.182ZM1499.48 680.182H1520.62L1534.25 708.545H1534.8L1548.43 680.182H1569.57L1543.93 728.045V750H1525.12V728.045L1499.48 680.182ZM1592.01 680.182H1613.15L1626.78 708.545H1627.33L1640.97 680.182H1662.1L1636.47 728.045V750H1617.65V728.045L1592.01 680.182ZM1709.6 680.182H1728.55V724.909C1728.55 730.227 1727.28 734.83 1724.74 738.716C1722.21 742.58 1718.69 745.568 1714.17 747.682C1709.64 749.773 1704.39 750.818 1698.42 750.818C1692.39 750.818 1687.12 749.773 1682.6 747.682C1678.08 745.568 1674.55 742.58 1672.03 738.716C1669.53 734.83 1668.28 730.227 1668.28 724.909V680.182H1687.24V723.273C1687.24 725.432 1687.71 727.364 1688.67 729.068C1689.62 730.75 1690.94 732.068 1692.62 733.023C1694.33 733.977 1696.26 734.455 1698.42 734.455C1700.6 734.455 1702.53 733.977 1704.21 733.023C1705.89 732.068 1707.21 730.75 1708.17 729.068C1709.12 727.364 1709.6 725.432 1709.6 723.273V680.182ZM1737.56 680.182H1761.15L1777.38 719.727H1778.2L1794.43 680.182H1818.02V750H1799.47V709.636H1798.93L1783.38 749.455H1772.2L1756.65 709.364H1756.11V750H1737.56V680.182ZM1827 680.182H1850.59L1866.82 719.727H1867.64L1883.86 680.182H1907.45V750H1888.91V709.636H1888.36L1872.82 749.455H1861.64L1846.09 709.364H1845.55V750H1827V680.182ZM1913.57 680.182H1934.71L1948.35 708.545H1948.89L1962.53 680.182H1983.66L1958.03 728.045V750H1939.21V728.045L1913.57 680.182ZM2006.11 680.182H2027.24L2040.88 708.545H2041.42L2055.06 680.182H2076.2L2050.56 728.045V750H2031.74V728.045L2006.11 680.182ZM2123.69 680.182H2142.65V724.909C2142.65 730.227 2141.38 734.83 2138.83 738.716C2136.31 742.58 2132.78 745.568 2128.26 747.682C2123.74 749.773 2118.49 750.818 2112.51 750.818C2106.49 750.818 2101.22 749.773 2096.69 747.682C2092.17 745.568 2088.65 742.58 2086.12 738.716C2083.62 734.83 2082.38 730.227 2082.38 724.909V680.182H2101.33V723.273C2101.33 725.432 2101.81 727.364 2102.76 729.068C2103.72 730.75 2105.03 732.068 2106.72 733.023C2108.42 733.977 2110.35 734.455 2112.51 734.455C2114.69 734.455 2116.63 733.977 2118.31 733.023C2119.99 732.068 2121.31 730.75 2122.26 729.068C2123.22 727.364 2123.69 725.432 2123.69 723.273V680.182ZM2151.66 680.182H2175.25L2191.47 719.727H2192.29L2208.52 680.182H2232.11V750H2213.57V709.636H2213.02L2197.47 749.455H2186.29L2170.75 709.364H2170.2V750H2151.66V680.182ZM2241.09 680.182H2264.68L2280.91 719.727H2281.73L2297.96 680.182H2321.55V750H2303V709.636H2302.46L2286.91 749.455H2275.73L2260.18 709.364H2259.64V750H2241.09V680.182ZM2327.67 680.182H2348.8L2362.44 708.545H2362.99L2376.62 680.182H2397.76L2372.12 728.045V750H2353.3V728.045L2327.67 680.182ZM2420.2 680.182H2441.34L2454.97 708.545H2455.52L2469.15 680.182H2490.29L2464.65 728.045V750H2445.84V728.045L2420.2 680.182ZM2537.79 680.182H2556.74V724.909C2556.74 730.227 2555.47 734.83 2552.92 738.716C2550.4 742.58 2546.88 745.568 2542.36 747.682C2537.83 749.773 2532.58 750.818 2526.61 750.818C2520.58 750.818 2515.31 749.773 2510.79 747.682C2506.26 745.568 2502.74 742.58 2500.22 738.716C2497.72 734.83 2496.47 730.227 2496.47 724.909V680.182H2515.42V723.273C2515.42 725.432 2515.9 727.364 2516.86 729.068C2517.81 730.75 2519.13 732.068 2520.81 733.023C2522.51 733.977 2524.45 734.455 2526.61 734.455C2528.79 734.455 2530.72 733.977 2532.4 733.023C2534.08 732.068 2535.4 730.75 2536.36 729.068C2537.31 727.364 2537.79 725.432 2537.79 723.273V680.182ZM2565.75 680.182H2589.34L2605.57 719.727H2606.39L2622.61 680.182H2646.2V750H2627.66V709.636H2627.11L2611.57 749.455H2600.39L2584.84 709.364H2584.3V750H2565.75V680.182ZM2655.19 680.182H2678.78L2695.01 719.727H2695.82L2712.05 680.182H2735.64V750H2717.1V709.636H2716.55L2701.01 749.455H2689.82L2674.28 709.364H2673.73V750H2655.19V680.182ZM2741.76 680.182H2762.9L2776.53 708.545H2777.08L2790.72 680.182H2811.85L2786.22 728.045V750H2767.4V728.045L2741.76 680.182ZM2834.29 680.182H2855.43L2869.07 708.545H2869.61L2883.25 680.182H2904.38L2878.75 728.045V750H2859.93V728.045L2834.29 680.182ZM2951.88 680.182H2970.84V724.909C2970.84 730.227 2969.56 734.83 2967.02 738.716C2964.49 742.58 2960.97 745.568 2956.45 747.682C2951.93 749.773 2946.68 750.818 2940.7 750.818C2934.68 750.818 2929.4 749.773 2924.88 747.682C2920.36 745.568 2916.84 742.58 2914.31 738.716C2911.81 734.83 2910.56 730.227 2910.56 724.909V680.182H2929.52V723.273C2929.52 725.432 2929.99 727.364 2930.95 729.068C2931.9 730.75 2933.22 732.068 2934.9 733.023C2936.61 733.977 2938.54 734.455 2940.7 734.455C2942.88 734.455 2944.81 733.977 2946.49 733.023C2948.18 732.068 2949.49 730.75 2950.45 729.068C2951.4 727.364 2951.88 725.432 2951.88 723.273V680.182ZM2979.84 680.182H3003.43L3019.66 719.727H3020.48L3036.71 680.182H3060.3V750H3041.75V709.636H3041.21L3025.66 749.455H3014.48L2998.93 709.364H2998.39V750H2979.84V680.182ZM3069.28 680.182H3092.87L3109.1 719.727H3109.92L3126.14 680.182H3149.74V750H3131.19V709.636H3130.64L3115.1 749.455H3103.92L3088.37 709.364H3087.83V750H3069.28V680.182ZM3155.86 680.182H3176.99L3190.63 708.545H3191.17L3204.81 680.182H3225.95L3200.31 728.045V750H3181.49V728.045L3155.86 680.182ZM-64.3636 796.182H-43.2273L-29.5909 824.545H-29.0455L-15.4091 796.182H5.72728L-19.9091 844.045V866H-38.7273V844.045L-64.3636 796.182ZM53.2244 796.182H72.179V840.909C72.179 846.227 70.9063 850.83 68.3608 854.716C65.8381 858.58 62.3153 861.568 57.7926 863.682C53.2699 865.773 48.0199 866.818 42.0426 866.818C36.0199 866.818 30.7472 865.773 26.2244 863.682C21.7017 861.568 18.179 858.58 15.6562 854.716C13.1562 850.83 11.9062 846.227 11.9062 840.909V796.182H30.8608V839.273C30.8608 841.432 31.3381 843.364 32.2926 845.068C33.2472 846.75 34.5653 848.068 36.2472 849.023C37.9517 849.977 39.8835 850.455 42.0426 850.455C44.2244 850.455 46.1563 849.977 47.8381 849.023C49.5199 848.068 50.8381 846.75 51.7926 845.068C52.7472 843.364 53.2244 841.432 53.2244 839.273V796.182ZM81.1875 796.182H104.778L121.006 835.727H121.824L138.051 796.182H161.642V866H143.097V825.636H142.551L127.006 865.455H115.824L100.278 825.364H99.733V866H81.1875V796.182ZM170.625 796.182H194.216L210.443 835.727H211.261L227.489 796.182H251.08V866H232.534V825.636H231.989L216.443 865.455H205.261L189.716 825.364H189.17V866H170.625V796.182ZM257.199 796.182H278.335L291.972 824.545H292.517L306.153 796.182H327.29L301.653 844.045V866H282.835V844.045L257.199 796.182ZM349.73 796.182H370.866L384.503 824.545H385.048L398.685 796.182H419.821L394.185 844.045V866H375.366V844.045L349.73 796.182ZM467.318 796.182H486.273V840.909C486.273 846.227 485 850.83 482.455 854.716C479.932 858.58 476.409 861.568 471.886 863.682C467.364 865.773 462.114 866.818 456.136 866.818C450.114 866.818 444.841 865.773 440.318 863.682C435.795 861.568 432.273 858.58 429.75 854.716C427.25 850.83 426 846.227 426 840.909V796.182H444.955V839.273C444.955 841.432 445.432 843.364 446.386 845.068C447.341 846.75 448.659 848.068 450.341 849.023C452.045 849.977 453.977 850.455 456.136 850.455C458.318 850.455 460.25 849.977 461.932 849.023C463.614 848.068 464.932 846.75 465.886 845.068C466.841 843.364 467.318 841.432 467.318 839.273V796.182ZM495.281 796.182H518.872L535.099 835.727H535.918L552.145 796.182H575.736V866H557.19V825.636H556.645L541.099 865.455H529.918L514.372 825.364H513.827V866H495.281V796.182ZM584.719 796.182H608.31L624.537 835.727H625.355L641.582 796.182H665.173V866H646.628V825.636H646.082L630.537 865.455H619.355L603.81 825.364H603.264V866H584.719V796.182ZM671.293 796.182H692.429L706.065 824.545H706.611L720.247 796.182H741.384L715.747 844.045V866H696.929V844.045L671.293 796.182ZM763.824 796.182H784.96L798.597 824.545H799.142L812.778 796.182H833.915L808.278 844.045V866H789.46V844.045L763.824 796.182ZM881.412 796.182H900.366V840.909C900.366 846.227 899.094 850.83 896.548 854.716C894.026 858.58 890.503 861.568 885.98 863.682C881.457 865.773 876.207 866.818 870.23 866.818C864.207 866.818 858.935 865.773 854.412 863.682C849.889 861.568 846.366 858.58 843.844 854.716C841.344 850.83 840.094 846.227 840.094 840.909V796.182H859.048V839.273C859.048 841.432 859.526 843.364 860.48 845.068C861.435 846.75 862.753 848.068 864.435 849.023C866.139 849.977 868.071 850.455 870.23 850.455C872.412 850.455 874.344 849.977 876.026 849.023C877.707 848.068 879.026 846.75 879.98 845.068C880.935 843.364 881.412 841.432 881.412 839.273V796.182ZM909.375 796.182H932.966L949.193 835.727H950.011L966.239 796.182H989.83V866H971.284V825.636H970.739L955.193 865.455H944.011L928.466 825.364H927.92V866H909.375V796.182ZM998.812 796.182H1022.4L1038.63 835.727H1039.45L1055.68 796.182H1079.27V866H1060.72V825.636H1060.18L1044.63 865.455H1033.45L1017.9 825.364H1017.36V866H998.812V796.182ZM1085.39 796.182H1106.52L1120.16 824.545H1120.7L1134.34 796.182H1155.48L1129.84 844.045V866H1111.02V844.045L1085.39 796.182ZM1177.92 796.182H1199.05L1212.69 824.545H1213.24L1226.87 796.182H1248.01L1222.37 844.045V866H1203.55V844.045L1177.92 796.182ZM1295.51 796.182H1314.46V840.909C1314.46 846.227 1313.19 850.83 1310.64 854.716C1308.12 858.58 1304.6 861.568 1300.07 863.682C1295.55 865.773 1290.3 866.818 1284.32 866.818C1278.3 866.818 1273.03 865.773 1268.51 863.682C1263.98 861.568 1260.46 858.58 1257.94 854.716C1255.44 850.83 1254.19 846.227 1254.19 840.909V796.182H1273.14V839.273C1273.14 841.432 1273.62 843.364 1274.57 845.068C1275.53 846.75 1276.85 848.068 1278.53 849.023C1280.23 849.977 1282.16 850.455 1284.32 850.455C1286.51 850.455 1288.44 849.977 1290.12 849.023C1291.8 848.068 1293.12 846.75 1294.07 845.068C1295.03 843.364 1295.51 841.432 1295.51 839.273V796.182ZM1323.47 796.182H1347.06L1363.29 835.727H1364.11L1380.33 796.182H1403.92V866H1385.38V825.636H1384.83L1369.29 865.455H1358.11L1342.56 825.364H1342.01V866H1323.47V796.182ZM1412.91 796.182H1436.5L1452.72 835.727H1453.54L1469.77 796.182H1493.36V866H1474.82V825.636H1474.27L1458.72 865.455H1447.54L1432 825.364H1431.45V866H1412.91V796.182ZM1499.48 796.182H1520.62L1534.25 824.545H1534.8L1548.43 796.182H1569.57L1543.93 844.045V866H1525.12V844.045L1499.48 796.182ZM1592.01 796.182H1613.15L1626.78 824.545H1627.33L1640.97 796.182H1662.1L1636.47 844.045V866H1617.65V844.045L1592.01 796.182ZM1709.6 796.182H1728.55V840.909C1728.55 846.227 1727.28 850.83 1724.74 854.716C1722.21 858.58 1718.69 861.568 1714.17 863.682C1709.64 865.773 1704.39 866.818 1698.42 866.818C1692.39 866.818 1687.12 865.773 1682.6 863.682C1678.08 861.568 1674.55 858.58 1672.03 854.716C1669.53 850.83 1668.28 846.227 1668.28 840.909V796.182H1687.24V839.273C1687.24 841.432 1687.71 843.364 1688.67 845.068C1689.62 846.75 1690.94 848.068 1692.62 849.023C1694.33 849.977 1696.26 850.455 1698.42 850.455C1700.6 850.455 1702.53 849.977 1704.21 849.023C1705.89 848.068 1707.21 846.75 1708.17 845.068C1709.12 843.364 1709.6 841.432 1709.6 839.273V796.182ZM1737.56 796.182H1761.15L1777.38 835.727H1778.2L1794.43 796.182H1818.02V866H1799.47V825.636H1798.93L1783.38 865.455H1772.2L1756.65 825.364H1756.11V866H1737.56V796.182ZM1827 796.182H1850.59L1866.82 835.727H1867.64L1883.86 796.182H1907.45V866H1888.91V825.636H1888.36L1872.82 865.455H1861.64L1846.09 825.364H1845.55V866H1827V796.182ZM1913.57 796.182H1934.71L1948.35 824.545H1948.89L1962.53 796.182H1983.66L1958.03 844.045V866H1939.21V844.045L1913.57 796.182ZM2006.11 796.182H2027.24L2040.88 824.545H2041.42L2055.06 796.182H2076.2L2050.56 844.045V866H2031.74V844.045L2006.11 796.182ZM2123.69 796.182H2142.65V840.909C2142.65 846.227 2141.38 850.83 2138.83 854.716C2136.31 858.58 2132.78 861.568 2128.26 863.682C2123.74 865.773 2118.49 866.818 2112.51 866.818C2106.49 866.818 2101.22 865.773 2096.69 863.682C2092.17 861.568 2088.65 858.58 2086.12 854.716C2083.62 850.83 2082.38 846.227 2082.38 840.909V796.182H2101.33V839.273C2101.33 841.432 2101.81 843.364 2102.76 845.068C2103.72 846.75 2105.03 848.068 2106.72 849.023C2108.42 849.977 2110.35 850.455 2112.51 850.455C2114.69 850.455 2116.63 849.977 2118.31 849.023C2119.99 848.068 2121.31 846.75 2122.26 845.068C2123.22 843.364 2123.69 841.432 2123.69 839.273V796.182ZM2151.66 796.182H2175.25L2191.47 835.727H2192.29L2208.52 796.182H2232.11V866H2213.57V825.636H2213.02L2197.47 865.455H2186.29L2170.75 825.364H2170.2V866H2151.66V796.182ZM2241.09 796.182H2264.68L2280.91 835.727H2281.73L2297.96 796.182H2321.55V866H2303V825.636H2302.46L2286.91 865.455H2275.73L2260.18 825.364H2259.64V866H2241.09V796.182ZM2327.67 796.182H2348.8L2362.44 824.545H2362.99L2376.62 796.182H2397.76L2372.12 844.045V866H2353.3V844.045L2327.67 796.182ZM2420.2 796.182H2441.34L2454.97 824.545H2455.52L2469.15 796.182H2490.29L2464.65 844.045V866H2445.84V844.045L2420.2 796.182ZM2537.79 796.182H2556.74V840.909C2556.74 846.227 2555.47 850.83 2552.92 854.716C2550.4 858.58 2546.88 861.568 2542.36 863.682C2537.83 865.773 2532.58 866.818 2526.61 866.818C2520.58 866.818 2515.31 865.773 2510.79 863.682C2506.26 861.568 2502.74 858.58 2500.22 854.716C2497.72 850.83 2496.47 846.227 2496.47 840.909V796.182H2515.42V839.273C2515.42 841.432 2515.9 843.364 2516.86 845.068C2517.81 846.75 2519.13 848.068 2520.81 849.023C2522.51 849.977 2524.45 850.455 2526.61 850.455C2528.79 850.455 2530.72 849.977 2532.4 849.023C2534.08 848.068 2535.4 846.75 2536.36 845.068C2537.31 843.364 2537.79 841.432 2537.79 839.273V796.182ZM2565.75 796.182H2589.34L2605.57 835.727H2606.39L2622.61 796.182H2646.2V866H2627.66V825.636H2627.11L2611.57 865.455H2600.39L2584.84 825.364H2584.3V866H2565.75V796.182ZM2655.19 796.182H2678.78L2695.01 835.727H2695.82L2712.05 796.182H2735.64V866H2717.1V825.636H2716.55L2701.01 865.455H2689.82L2674.28 825.364H2673.73V866H2655.19V796.182ZM2741.76 796.182H2762.9L2776.53 824.545H2777.08L2790.72 796.182H2811.85L2786.22 844.045V866H2767.4V844.045L2741.76 796.182ZM2834.29 796.182H2855.43L2869.07 824.545H2869.61L2883.25 796.182H2904.38L2878.75 844.045V866H2859.93V844.045L2834.29 796.182ZM2951.88 796.182H2970.84V840.909C2970.84 846.227 2969.56 850.83 2967.02 854.716C2964.49 858.58 2960.97 861.568 2956.45 863.682C2951.93 865.773 2946.68 866.818 2940.7 866.818C2934.68 866.818 2929.4 865.773 2924.88 863.682C2920.36 861.568 2916.84 858.58 2914.31 854.716C2911.81 850.83 2910.56 846.227 2910.56 840.909V796.182H2929.52V839.273C2929.52 841.432 2929.99 843.364 2930.95 845.068C2931.9 846.75 2933.22 848.068 2934.9 849.023C2936.61 849.977 2938.54 850.455 2940.7 850.455C2942.88 850.455 2944.81 849.977 2946.49 849.023C2948.18 848.068 2949.49 846.75 2950.45 845.068C2951.4 843.364 2951.88 841.432 2951.88 839.273V796.182ZM2979.84 796.182H3003.43L3019.66 835.727H3020.48L3036.71 796.182H3060.3V866H3041.75V825.636H3041.21L3025.66 865.455H3014.48L2998.93 825.364H2998.39V866H2979.84V796.182ZM3069.28 796.182H3092.87L3109.1 835.727H3109.92L3126.14 796.182H3149.74V866H3131.19V825.636H3130.64L3115.1 865.455H3103.92L3088.37 825.364H3087.83V866H3069.28V796.182ZM3155.86 796.182H3176.99L3190.63 824.545H3191.17L3204.81 796.182H3225.95L3200.31 844.045V866H3181.49V844.045L3155.86 796.182ZM-64.3636 912.182H-43.2273L-29.5909 940.545H-29.0455L-15.4091 912.182H5.72728L-19.9091 960.045V982H-38.7273V960.045L-64.3636 912.182ZM53.2244 912.182H72.179V956.909C72.179 962.227 70.9063 966.83 68.3608 970.716C65.8381 974.58 62.3153 977.568 57.7926 979.682C53.2699 981.773 48.0199 982.818 42.0426 982.818C36.0199 982.818 30.7472 981.773 26.2244 979.682C21.7017 977.568 18.179 974.58 15.6562 970.716C13.1562 966.83 11.9062 962.227 11.9062 956.909V912.182H30.8608V955.273C30.8608 957.432 31.3381 959.364 32.2926 961.068C33.2472 962.75 34.5653 964.068 36.2472 965.023C37.9517 965.977 39.8835 966.455 42.0426 966.455C44.2244 966.455 46.1563 965.977 47.8381 965.023C49.5199 964.068 50.8381 962.75 51.7926 961.068C52.7472 959.364 53.2244 957.432 53.2244 955.273V912.182ZM81.1875 912.182H104.778L121.006 951.727H121.824L138.051 912.182H161.642V982H143.097V941.636H142.551L127.006 981.455H115.824L100.278 941.364H99.733V982H81.1875V912.182ZM170.625 912.182H194.216L210.443 951.727H211.261L227.489 912.182H251.08V982H232.534V941.636H231.989L216.443 981.455H205.261L189.716 941.364H189.17V982H170.625V912.182ZM257.199 912.182H278.335L291.972 940.545H292.517L306.153 912.182H327.29L301.653 960.045V982H282.835V960.045L257.199 912.182ZM349.73 912.182H370.866L384.503 940.545H385.048L398.685 912.182H419.821L394.185 960.045V982H375.366V960.045L349.73 912.182ZM467.318 912.182H486.273V956.909C486.273 962.227 485 966.83 482.455 970.716C479.932 974.58 476.409 977.568 471.886 979.682C467.364 981.773 462.114 982.818 456.136 982.818C450.114 982.818 444.841 981.773 440.318 979.682C435.795 977.568 432.273 974.58 429.75 970.716C427.25 966.83 426 962.227 426 956.909V912.182H444.955V955.273C444.955 957.432 445.432 959.364 446.386 961.068C447.341 962.75 448.659 964.068 450.341 965.023C452.045 965.977 453.977 966.455 456.136 966.455C458.318 966.455 460.25 965.977 461.932 965.023C463.614 964.068 464.932 962.75 465.886 961.068C466.841 959.364 467.318 957.432 467.318 955.273V912.182ZM495.281 912.182H518.872L535.099 951.727H535.918L552.145 912.182H575.736V982H557.19V941.636H556.645L541.099 981.455H529.918L514.372 941.364H513.827V982H495.281V912.182ZM584.719 912.182H608.31L624.537 951.727H625.355L641.582 912.182H665.173V982H646.628V941.636H646.082L630.537 981.455H619.355L603.81 941.364H603.264V982H584.719V912.182ZM671.293 912.182H692.429L706.065 940.545H706.611L720.247 912.182H741.384L715.747 960.045V982H696.929V960.045L671.293 912.182ZM763.824 912.182H784.96L798.597 940.545H799.142L812.778 912.182H833.915L808.278 960.045V982H789.46V960.045L763.824 912.182ZM881.412 912.182H900.366V956.909C900.366 962.227 899.094 966.83 896.548 970.716C894.026 974.58 890.503 977.568 885.98 979.682C881.457 981.773 876.207 982.818 870.23 982.818C864.207 982.818 858.935 981.773 854.412 979.682C849.889 977.568 846.366 974.58 843.844 970.716C841.344 966.83 840.094 962.227 840.094 956.909V912.182H859.048V955.273C859.048 957.432 859.526 959.364 860.48 961.068C861.435 962.75 862.753 964.068 864.435 965.023C866.139 965.977 868.071 966.455 870.23 966.455C872.412 966.455 874.344 965.977 876.026 965.023C877.707 964.068 879.026 962.75 879.98 961.068C880.935 959.364 881.412 957.432 881.412 955.273V912.182ZM909.375 912.182H932.966L949.193 951.727H950.011L966.239 912.182H989.83V982H971.284V941.636H970.739L955.193 981.455H944.011L928.466 941.364H927.92V982H909.375V912.182ZM998.812 912.182H1022.4L1038.63 951.727H1039.45L1055.68 912.182H1079.27V982H1060.72V941.636H1060.18L1044.63 981.455H1033.45L1017.9 941.364H1017.36V982H998.812V912.182ZM1085.39 912.182H1106.52L1120.16 940.545H1120.7L1134.34 912.182H1155.48L1129.84 960.045V982H1111.02V960.045L1085.39 912.182ZM1177.92 912.182H1199.05L1212.69 940.545H1213.24L1226.87 912.182H1248.01L1222.37 960.045V982H1203.55V960.045L1177.92 912.182ZM1295.51 912.182H1314.46V956.909C1314.46 962.227 1313.19 966.83 1310.64 970.716C1308.12 974.58 1304.6 977.568 1300.07 979.682C1295.55 981.773 1290.3 982.818 1284.32 982.818C1278.3 982.818 1273.03 981.773 1268.51 979.682C1263.98 977.568 1260.46 974.58 1257.94 970.716C1255.44 966.83 1254.19 962.227 1254.19 956.909V912.182H1273.14V955.273C1273.14 957.432 1273.62 959.364 1274.57 961.068C1275.53 962.75 1276.85 964.068 1278.53 965.023C1280.23 965.977 1282.16 966.455 1284.32 966.455C1286.51 966.455 1288.44 965.977 1290.12 965.023C1291.8 964.068 1293.12 962.75 1294.07 961.068C1295.03 959.364 1295.51 957.432 1295.51 955.273V912.182ZM1323.47 912.182H1347.06L1363.29 951.727H1364.11L1380.33 912.182H1403.92V982H1385.38V941.636H1384.83L1369.29 981.455H1358.11L1342.56 941.364H1342.01V982H1323.47V912.182ZM1412.91 912.182H1436.5L1452.72 951.727H1453.54L1469.77 912.182H1493.36V982H1474.82V941.636H1474.27L1458.72 981.455H1447.54L1432 941.364H1431.45V982H1412.91V912.182ZM1499.48 912.182H1520.62L1534.25 940.545H1534.8L1548.43 912.182H1569.57L1543.93 960.045V982H1525.12V960.045L1499.48 912.182ZM1592.01 912.182H1613.15L1626.78 940.545H1627.33L1640.97 912.182H1662.1L1636.47 960.045V982H1617.65V960.045L1592.01 912.182ZM1709.6 912.182H1728.55V956.909C1728.55 962.227 1727.28 966.83 1724.74 970.716C1722.21 974.58 1718.69 977.568 1714.17 979.682C1709.64 981.773 1704.39 982.818 1698.42 982.818C1692.39 982.818 1687.12 981.773 1682.6 979.682C1678.08 977.568 1674.55 974.58 1672.03 970.716C1669.53 966.83 1668.28 962.227 1668.28 956.909V912.182H1687.24V955.273C1687.24 957.432 1687.71 959.364 1688.67 961.068C1689.62 962.75 1690.94 964.068 1692.62 965.023C1694.33 965.977 1696.26 966.455 1698.42 966.455C1700.6 966.455 1702.53 965.977 1704.21 965.023C1705.89 964.068 1707.21 962.75 1708.17 961.068C1709.12 959.364 1709.6 957.432 1709.6 955.273V912.182ZM1737.56 912.182H1761.15L1777.38 951.727H1778.2L1794.43 912.182H1818.02V982H1799.47V941.636H1798.93L1783.38 981.455H1772.2L1756.65 941.364H1756.11V982H1737.56V912.182ZM1827 912.182H1850.59L1866.82 951.727H1867.64L1883.86 912.182H1907.45V982H1888.91V941.636H1888.36L1872.82 981.455H1861.64L1846.09 941.364H1845.55V982H1827V912.182ZM1913.57 912.182H1934.71L1948.35 940.545H1948.89L1962.53 912.182H1983.66L1958.03 960.045V982H1939.21V960.045L1913.57 912.182ZM2006.11 912.182H2027.24L2040.88 940.545H2041.42L2055.06 912.182H2076.2L2050.56 960.045V982H2031.74V960.045L2006.11 912.182ZM2123.69 912.182H2142.65V956.909C2142.65 962.227 2141.38 966.83 2138.83 970.716C2136.31 974.58 2132.78 977.568 2128.26 979.682C2123.74 981.773 2118.49 982.818 2112.51 982.818C2106.49 982.818 2101.22 981.773 2096.69 979.682C2092.17 977.568 2088.65 974.58 2086.12 970.716C2083.62 966.83 2082.38 962.227 2082.38 956.909V912.182H2101.33V955.273C2101.33 957.432 2101.81 959.364 2102.76 961.068C2103.72 962.75 2105.03 964.068 2106.72 965.023C2108.42 965.977 2110.35 966.455 2112.51 966.455C2114.69 966.455 2116.63 965.977 2118.31 965.023C2119.99 964.068 2121.31 962.75 2122.26 961.068C2123.22 959.364 2123.69 957.432 2123.69 955.273V912.182ZM2151.66 912.182H2175.25L2191.47 951.727H2192.29L2208.52 912.182H2232.11V982H2213.57V941.636H2213.02L2197.47 981.455H2186.29L2170.75 941.364H2170.2V982H2151.66V912.182ZM2241.09 912.182H2264.68L2280.91 951.727H2281.73L2297.96 912.182H2321.55V982H2303V941.636H2302.46L2286.91 981.455H2275.73L2260.18 941.364H2259.64V982H2241.09V912.182ZM2327.67 912.182H2348.8L2362.44 940.545H2362.99L2376.62 912.182H2397.76L2372.12 960.045V982H2353.3V960.045L2327.67 912.182ZM2420.2 912.182H2441.34L2454.97 940.545H2455.52L2469.15 912.182H2490.29L2464.65 960.045V982H2445.84V960.045L2420.2 912.182ZM2537.79 912.182H2556.74V956.909C2556.74 962.227 2555.47 966.83 2552.92 970.716C2550.4 974.58 2546.88 977.568 2542.36 979.682C2537.83 981.773 2532.58 982.818 2526.61 982.818C2520.58 982.818 2515.31 981.773 2510.79 979.682C2506.26 977.568 2502.74 974.58 2500.22 970.716C2497.72 966.83 2496.47 962.227 2496.47 956.909V912.182H2515.42V955.273C2515.42 957.432 2515.9 959.364 2516.86 961.068C2517.81 962.75 2519.13 964.068 2520.81 965.023C2522.51 965.977 2524.45 966.455 2526.61 966.455C2528.79 966.455 2530.72 965.977 2532.4 965.023C2534.08 964.068 2535.4 962.75 2536.36 961.068C2537.31 959.364 2537.79 957.432 2537.79 955.273V912.182ZM2565.75 912.182H2589.34L2605.57 951.727H2606.39L2622.61 912.182H2646.2V982H2627.66V941.636H2627.11L2611.57 981.455H2600.39L2584.84 941.364H2584.3V982H2565.75V912.182ZM2655.19 912.182H2678.78L2695.01 951.727H2695.82L2712.05 912.182H2735.64V982H2717.1V941.636H2716.55L2701.01 981.455H2689.82L2674.28 941.364H2673.73V982H2655.19V912.182ZM2741.76 912.182H2762.9L2776.53 940.545H2777.08L2790.72 912.182H2811.85L2786.22 960.045V982H2767.4V960.045L2741.76 912.182ZM2834.29 912.182H2855.43L2869.07 940.545H2869.61L2883.25 912.182H2904.38L2878.75 960.045V982H2859.93V960.045L2834.29 912.182ZM2951.88 912.182H2970.84V956.909C2970.84 962.227 2969.56 966.83 2967.02 970.716C2964.49 974.58 2960.97 977.568 2956.45 979.682C2951.93 981.773 2946.68 982.818 2940.7 982.818C2934.68 982.818 2929.4 981.773 2924.88 979.682C2920.36 977.568 2916.84 974.58 2914.31 970.716C2911.81 966.83 2910.56 962.227 2910.56 956.909V912.182H2929.52V955.273C2929.52 957.432 2929.99 959.364 2930.95 961.068C2931.9 962.75 2933.22 964.068 2934.9 965.023C2936.61 965.977 2938.54 966.455 2940.7 966.455C2942.88 966.455 2944.81 965.977 2946.49 965.023C2948.18 964.068 2949.49 962.75 2950.45 961.068C2951.4 959.364 2951.88 957.432 2951.88 955.273V912.182ZM2979.84 912.182H3003.43L3019.66 951.727H3020.48L3036.71 912.182H3060.3V982H3041.75V941.636H3041.21L3025.66 981.455H3014.48L2998.93 941.364H2998.39V982H2979.84V912.182ZM3069.28 912.182H3092.87L3109.1 951.727H3109.92L3126.14 912.182H3149.74V982H3131.19V941.636H3130.64L3115.1 981.455H3103.92L3088.37 941.364H3087.83V982H3069.28V912.182ZM3155.86 912.182H3176.99L3190.63 940.545H3191.17L3204.81 912.182H3225.95L3200.31 960.045V982H3181.49V960.045L3155.86 912.182Z" fill="white" fill-opacity="0.56"/>
</g>
</svg>
