<svg width="1260" height="814" viewBox="0 0 1260 814" fill="none" xmlns="http://www.w3.org/2000/svg">
<path d="M691.735 636.523C637.493 605.195 619.57 535.518 651.962 481.902L835.455 178.18C855.506 144.991 891.315 124.502 930.117 124.016L1024.37 122.835C1087.37 122.045 1138.6 173.238 1137.75 236.139L1136.22 349.871C1135.97 368.49 1131.07 386.758 1121.96 403.017L973.559 668.005C943.012 722.548 873.68 741.606 819.544 710.339L691.735 636.523Z" fill="url(#paint0_linear_6_22)"/>
<path d="M1038.5 1.72268C1038.5 30.7489 1044.23 59.4909 1055.36 86.3077C1066.49 113.124 1082.81 137.491 1103.38 158.015C1123.94 178.54 1148.36 194.821 1175.24 205.929C1202.11 217.037 1230.91 222.754 1260 222.754L1260 119.815C1244.46 119.815 1229.07 116.76 1214.71 110.825C1200.35 104.891 1187.31 96.1921 1176.32 85.2263C1165.33 74.2604 1156.61 61.2421 1150.67 46.9145C1144.72 32.5869 1141.66 17.2307 1141.66 1.72267L1038.5 1.72268Z" fill="#E85A00" fill-opacity="0.33"/>
<ellipse cx="235.5" cy="399.379" rx="119.5" ry="119.247" fill="#FF873B"/>
<path d="M540.498 1.72262C540.498 15.6133 543.239 29.3679 548.566 42.2012C553.893 55.0345 561.701 66.6951 571.544 76.5173C581.387 86.3395 593.073 94.1309 605.933 99.4466C618.794 104.762 632.578 107.498 646.498 107.498C660.418 107.498 674.202 104.762 687.062 99.4466C699.923 94.1309 711.608 86.3395 721.451 76.5173C731.294 66.6951 739.102 55.0345 744.429 42.2012C749.756 29.3679 752.498 15.6133 752.498 1.72263L711.955 1.72263C711.955 10.3004 710.261 18.7941 706.972 26.7189C703.682 34.6437 698.861 41.8443 692.783 47.9097C686.704 53.9751 679.488 58.7864 671.547 62.069C663.605 65.3515 655.094 67.041 646.498 67.041C637.902 67.041 629.39 65.3515 621.448 62.069C613.507 58.7864 606.291 53.9751 600.213 47.9097C594.134 41.8443 589.313 34.6437 586.023 26.7189C582.734 18.7941 581.041 10.3004 581.041 1.72262L540.498 1.72262Z" fill="#FFB57C" fill-opacity="0.35"/>
<path d="M180 814C180 790.543 175.344 767.316 166.298 745.645C157.252 723.974 143.994 704.283 127.279 687.696C110.565 671.11 90.7216 657.952 68.883 648.976C47.0444 639.999 23.6379 635.379 0 635.379L1.53013e-05 688.966C16.5466 688.966 32.9311 692.2 48.2181 698.483C63.5051 704.767 77.3953 713.977 89.0954 725.587C100.796 737.198 110.077 750.982 116.409 766.152C122.741 781.321 126 797.581 126 814H180Z" fill="white" fill-opacity="0.15"/>
<defs>
<linearGradient id="paint0_linear_6_22" x1="1003.58" y1="245.631" x2="756.288" y2="673.805" gradientUnits="userSpaceOnUse">
<stop offset="0.305043" stop-color="#FE7213" stop-opacity="0"/>
<stop offset="0.545043" stop-color="#FE7213" stop-opacity="0.54"/>
<stop offset="1" stop-color="#C95609" stop-opacity="0.21"/>
</linearGradient>
</defs>
</svg>
